<svg width="16" height="18" viewBox="0 0 16 18" fill="none" xmlns="http://www.w3.org/2000/svg">
<path d="M2.44964 16.2361L2.89048 15.6293L2.44964 16.2361ZM1.56471 15.3511L2.17148 14.9103L1.56471 15.3511ZM14.4368 15.3511L13.8301 14.9103L14.4368 15.3511ZM13.5519 16.2361L13.9928 16.8428L13.5519 16.2361ZM13.5519 3.36393L13.9928 2.75717L13.5519 3.36393ZM14.4368 4.24886L13.8301 4.6897L14.4368 4.24886ZM2.44964 3.36393L2.89048 3.97069L2.44964 3.36393ZM1.56471 4.24886L2.17148 4.6897L1.56471 4.24886ZM13.775 12.2492L13.6577 11.5085L13.775 12.2492ZM10.45 15.5743L9.70926 15.4569L10.45 15.5743ZM9.65078 3.4C9.65078 3.81421 9.98657 4.15 10.4008 4.15C10.815 4.15 11.1508 3.81421 11.1508 3.4H9.65078ZM11.1508 1C11.1508 0.585786 10.815 0.25 10.4008 0.25C9.98657 0.25 9.65078 0.585786 9.65078 1H11.1508ZM4.85078 3.4C4.85078 3.81421 5.18657 4.15 5.60078 4.15C6.01499 4.15 6.35078 3.81421 6.35078 3.4H4.85078ZM6.35078 1C6.35078 0.585786 6.01499 0.25 5.60078 0.25C5.18657 0.25 4.85078 0.585786 4.85078 1H6.35078ZM15.1776 12.2L15.9272 12.2257L15.1776 12.2ZM10.4008 16.9769L10.4265 17.7264L10.4008 16.9769ZM8.00078 16.25C6.48418 16.25 5.40698 16.249 4.57537 16.1589C3.75781 16.0703 3.26705 15.9029 2.89048 15.6293L2.0088 16.8428C2.68369 17.3332 3.46861 17.5477 4.4138 17.6501C5.34496 17.751 6.51759 17.75 8.00078 17.75V16.25ZM0.0507812 9.8C0.0507812 11.2832 0.0497518 12.4558 0.150636 13.387C0.253041 14.3322 0.467613 15.1171 0.95795 15.792L2.17148 14.9103C1.89788 14.5337 1.73049 14.043 1.64191 13.2254C1.55181 12.3938 1.55078 11.3166 1.55078 9.8H0.0507812ZM2.89048 15.6293C2.61457 15.4288 2.37193 15.1862 2.17148 14.9103L0.95795 15.792C1.25093 16.1952 1.60555 16.5499 2.0088 16.8428L2.89048 15.6293ZM13.8301 14.9103C13.6296 15.1862 13.387 15.4288 13.1111 15.6293L13.9928 16.8428C14.396 16.5499 14.7506 16.1952 15.0436 15.792L13.8301 14.9103ZM15.9508 9.8C15.9508 8.31681 15.9518 7.14418 15.8509 6.21302C15.7485 5.26783 15.5339 4.48291 15.0436 3.80802L13.8301 4.6897C14.1037 5.06627 14.2711 5.55703 14.3597 6.37459C14.4497 7.2062 14.4508 8.2834 14.4508 9.8H15.9508ZM13.1111 3.97069C13.387 4.17115 13.6296 4.41379 13.8301 4.6897L15.0436 3.80802C14.7506 3.40477 14.396 3.05015 13.9928 2.75717L13.1111 3.97069ZM1.55078 9.8C1.55078 8.2834 1.55181 7.2062 1.64191 6.37459C1.73049 5.55703 1.89788 5.06627 2.17148 4.6897L0.95795 3.80802C0.467613 4.48291 0.253041 5.26783 0.150636 6.21302C0.0497518 7.14418 0.0507812 8.31681 0.0507812 9.8H1.55078ZM2.0088 2.75717C1.60555 3.05015 1.25093 3.40477 0.95795 3.80802L2.17148 4.6897C2.37193 4.41379 2.61457 4.17115 2.89048 3.97069L2.0088 2.75717ZM13.6577 11.5085C11.6252 11.8304 10.0312 13.4244 9.70926 15.4569L11.1908 15.6916C11.4111 14.3009 12.5017 13.2103 13.8924 12.99L13.6577 11.5085ZM6.35078 3.4V2.62314H4.85078V3.4H6.35078ZM6.35078 2.62314V1H4.85078V2.62314H6.35078ZM8.00078 1.85C7.06979 1.85 6.26616 1.84991 5.5751 1.87358L5.62646 3.3727C6.28636 3.35009 7.06149 3.35 8.00078 3.35V1.85ZM5.5751 1.87358C4.07449 1.925 2.93154 2.08676 2.0088 2.75717L2.89048 3.97069C3.41511 3.58953 4.14437 3.42348 5.62646 3.3727L5.5751 1.87358ZM11.1508 3.4V2.62314H9.65078V3.4H11.1508ZM11.1508 2.62314V1H9.65078V2.62314H11.1508ZM8.00078 3.35C8.94007 3.35 9.7152 3.35009 10.3751 3.3727L10.4265 1.87358C9.7354 1.84991 8.93177 1.85 8.00078 1.85V3.35ZM10.3751 3.3727C11.8572 3.42348 12.5865 3.58953 13.1111 3.97069L13.9928 2.75717C13.07 2.08676 11.9271 1.925 10.4265 1.87358L10.3751 3.3727ZM15.1776 11.45C14.4773 11.45 14.0381 11.4482 13.6577 11.5085L13.8924 12.99C14.1273 12.9528 14.4223 12.95 15.1776 12.95L15.1776 11.45ZM14.4508 9.8C14.4508 10.7393 14.4507 11.5144 14.4281 12.1743L15.9272 12.2257C15.9509 11.5346 15.9508 10.731 15.9508 9.8H14.4508ZM14.4281 12.1743C14.3773 13.6564 14.2113 14.3857 13.8301 14.9103L15.0436 15.792C15.714 14.8692 15.8758 13.7263 15.9272 12.2257L14.4281 12.1743ZM11.1508 16.9769C11.1508 16.2216 11.1536 15.9265 11.1908 15.6916L9.70926 15.4569C9.64901 15.8374 9.65079 16.2765 9.65078 16.9769L11.1508 16.9769ZM8.00078 17.75C8.93177 17.75 9.73541 17.7501 10.4265 17.7264L10.3751 16.2273C9.7152 16.2499 8.94007 16.25 8.00078 16.25V17.75ZM10.4265 17.7264C11.9271 17.675 13.07 17.5132 13.9928 16.8428L13.1111 15.6293C12.5865 16.0105 11.8572 16.1765 10.3751 16.2273L10.4265 17.7264Z" fill="#8B91A8"/>
<path d="M4.79922 6.59956C4.79922 7.04139 4.44105 7.39956 3.99922 7.39956C3.55739 7.39956 3.19922 7.04139 3.19922 6.59956C3.19922 6.15773 3.55739 5.79956 3.99922 5.79956C4.44105 5.79956 4.79922 6.15773 4.79922 6.59956Z" fill="#8B91A8"/>
<path d="M4.79922 9.79956C4.79922 10.2414 4.44105 10.5996 3.99922 10.5996C3.55739 10.5996 3.19922 10.2414 3.19922 9.79956C3.19922 9.35773 3.55739 8.99956 3.99922 8.99956C4.44105 8.99956 4.79922 9.35773 4.79922 9.79956Z" fill="#8B91A8"/>
<path d="M8.79922 6.59956C8.79922 7.04139 8.44105 7.39956 7.99922 7.39956C7.55739 7.39956 7.19922 7.04139 7.19922 6.59956C7.19922 6.15773 7.55739 5.79956 7.99922 5.79956C8.44105 5.79956 8.79922 6.15773 8.79922 6.59956Z" fill="#8B91A8"/>
<path d="M8.79922 9.79956C8.79922 10.2414 8.44105 10.5996 7.99922 10.5996C7.55739 10.5996 7.19922 10.2414 7.19922 9.79956C7.19922 9.35773 7.55739 8.99956 7.99922 8.99956C8.44105 8.99956 8.79922 9.35773 8.79922 9.79956Z" fill="#8B91A8"/>
<path d="M8.79922 12.9996C8.79922 13.4414 8.44105 13.7996 7.99922 13.7996C7.55739 13.7996 7.19922 13.4414 7.19922 12.9996C7.19922 12.5577 7.55739 12.1996 7.99922 12.1996C8.44105 12.1996 8.79922 12.5577 8.79922 12.9996Z" fill="#8B91A8"/>
<path d="M12.7992 6.59956C12.7992 7.04139 12.441 7.39956 11.9992 7.39956C11.5574 7.39956 11.1992 7.04139 11.1992 6.59956C11.1992 6.15773 11.5574 5.79956 11.9992 5.79956C12.441 5.79956 12.7992 6.15773 12.7992 6.59956Z" fill="#8B91A8"/>
<path d="M12.7992 9.79956C12.7992 10.2414 12.441 10.5996 11.9992 10.5996C11.5574 10.5996 11.1992 10.2414 11.1992 9.79956C11.1992 9.35773 11.5574 8.99956 11.9992 8.99956C12.441 8.99956 12.7992 9.35773 12.7992 9.79956Z" fill="#8B91A8"/>
<path d="M4.79922 12.9996C4.79922 13.4414 4.44105 13.7996 3.99922 13.7996C3.55739 13.7996 3.19922 13.4414 3.19922 12.9996C3.19922 12.5577 3.55739 12.1996 3.99922 12.1996C4.44105 12.1996 4.79922 12.5577 4.79922 12.9996Z" fill="#8B91A8"/>
</svg>
