<svg width="24" height="24" viewBox="0 0 24 24" fill="none" xmlns="http://www.w3.org/2000/svg">
<g id="Calender">
<g id="Calender 2">
<path id="Vector" d="M6.44964 19.2361L6.89048 18.6293L6.44964 19.2361ZM5.56471 18.3511L6.17148 17.9103L5.56471 18.3511ZM18.4368 18.3511L17.8301 17.9103L18.4368 18.3511ZM17.5519 19.2361L17.9928 19.8428L17.5519 19.2361ZM17.5519 6.36393L17.9928 5.75717L17.5519 6.36393ZM18.4368 7.24886L17.8301 7.6897L18.4368 7.24886ZM6.44964 6.36393L6.89048 6.97069L6.44964 6.36393ZM5.56471 7.24886L6.17148 7.6897L5.56471 7.24886ZM17.775 15.2492L17.6577 14.5085L17.775 15.2492ZM14.45 18.5743L13.7093 18.4569L14.45 18.5743ZM13.6508 6.4C13.6508 6.81421 13.9866 7.15 14.4008 7.15C14.815 7.15 15.1508 6.81421 15.1508 6.4H13.6508ZM15.1508 4C15.1508 3.58579 14.815 3.25 14.4008 3.25C13.9866 3.25 13.6508 3.58579 13.6508 4H15.1508ZM8.85078 6.4C8.85078 6.81421 9.18657 7.15 9.60078 7.15C10.015 7.15 10.3508 6.81421 10.3508 6.4H8.85078ZM10.3508 4C10.3508 3.58579 10.015 3.25 9.60078 3.25C9.18657 3.25 8.85078 3.58579 8.85078 4H10.3508ZM19.1776 15.2L19.9272 15.2257L19.1776 15.2ZM14.4008 19.9769L14.4265 20.7264L14.4008 19.9769ZM12.0008 19.25C10.4842 19.25 9.40698 19.249 8.57537 19.1589C7.75781 19.0703 7.26705 18.9029 6.89048 18.6293L6.0088 19.8428C6.68369 20.3332 7.46861 20.5477 8.4138 20.6501C9.34496 20.751 10.5176 20.75 12.0008 20.75V19.25ZM4.05078 12.8C4.05078 14.2832 4.04975 15.4558 4.15064 16.387C4.25304 17.3322 4.46761 18.1171 4.95795 18.792L6.17148 17.9103C5.89788 17.5337 5.73049 17.043 5.64191 16.2254C5.55181 15.3938 5.55078 14.3166 5.55078 12.8H4.05078ZM6.89048 18.6293C6.61457 18.4288 6.37193 18.1862 6.17148 17.9103L4.95795 18.792C5.25093 19.1952 5.60555 19.5499 6.0088 19.8428L6.89048 18.6293ZM17.8301 17.9103C17.6296 18.1862 17.387 18.4288 17.1111 18.6293L17.9928 19.8428C18.396 19.5499 18.7506 19.1952 19.0436 18.792L17.8301 17.9103ZM19.9508 12.8C19.9508 11.3168 19.9518 10.1442 19.8509 9.21302C19.7485 8.26783 19.5339 7.48291 19.0436 6.80802L17.8301 7.6897C18.1037 8.06627 18.2711 8.55703 18.3597 9.37459C18.4497 10.2062 18.4508 11.2834 18.4508 12.8H19.9508ZM17.1111 6.97069C17.387 7.17115 17.6296 7.41379 17.8301 7.6897L19.0436 6.80802C18.7506 6.40477 18.396 6.05015 17.9928 5.75717L17.1111 6.97069ZM5.55078 12.8C5.55078 11.2834 5.55181 10.2062 5.64191 9.37459C5.73049 8.55703 5.89788 8.06627 6.17148 7.6897L4.95795 6.80802C4.46761 7.48291 4.25304 8.26783 4.15064 9.21302C4.04975 10.1442 4.05078 11.3168 4.05078 12.8H5.55078ZM6.0088 5.75717C5.60555 6.05015 5.25093 6.40477 4.95795 6.80802L6.17148 7.6897C6.37193 7.41379 6.61457 7.17115 6.89048 6.97069L6.0088 5.75717ZM17.6577 14.5085C15.6252 14.8304 14.0312 16.4244 13.7093 18.4569L15.1908 18.6916C15.4111 17.3009 16.5017 16.2103 17.8924 15.99L17.6577 14.5085ZM10.3508 6.4V5.62314H8.85078V6.4H10.3508ZM10.3508 5.62314V4H8.85078V5.62314H10.3508ZM12.0008 4.85C11.0698 4.85 10.2662 4.84991 9.5751 4.87358L9.62646 6.3727C10.2864 6.35009 11.0615 6.35 12.0008 6.35V4.85ZM9.5751 4.87358C8.07449 4.925 6.93154 5.08676 6.0088 5.75717L6.89048 6.97069C7.41511 6.58953 8.14437 6.42348 9.62646 6.3727L9.5751 4.87358ZM15.1508 6.4V5.62314H13.6508V6.4H15.1508ZM15.1508 5.62314V4H13.6508V5.62314H15.1508ZM12.0008 6.35C12.9401 6.35 13.7152 6.35009 14.3751 6.3727L14.4265 4.87358C13.7354 4.84991 12.9318 4.85 12.0008 4.85V6.35ZM14.3751 6.3727C15.8572 6.42348 16.5865 6.58953 17.1111 6.97069L17.9928 5.75717C17.07 5.08676 15.9271 4.925 14.4265 4.87358L14.3751 6.3727ZM19.1776 14.45C18.4773 14.45 18.0381 14.4482 17.6577 14.5085L17.8924 15.99C18.1273 15.9528 18.4223 15.95 19.1776 15.95L19.1776 14.45ZM18.4508 12.8C18.4508 13.7393 18.4507 14.5144 18.4281 15.1743L19.9272 15.2257C19.9509 14.5346 19.9508 13.731 19.9508 12.8H18.4508ZM18.4281 15.1743C18.3773 16.6564 18.2113 17.3857 17.8301 17.9103L19.0436 18.792C19.714 17.8692 19.8758 16.7263 19.9272 15.2257L18.4281 15.1743ZM15.1508 19.9769C15.1508 19.2216 15.1536 18.9265 15.1908 18.6916L13.7093 18.4569C13.649 18.8374 13.6508 19.2765 13.6508 19.9769L15.1508 19.9769ZM12.0008 20.75C12.9318 20.75 13.7354 20.7501 14.4265 20.7264L14.3751 19.2273C13.7152 19.2499 12.9401 19.25 12.0008 19.25V20.75ZM14.4265 20.7264C15.9271 20.675 17.07 20.5132 17.9928 19.8428L17.1111 18.6293C16.5865 19.0105 15.8572 19.1765 14.3751 19.2273L14.4265 20.7264Z" fill="#8B91A8"/>
<g id="Vector_2">
<path d="M8.80117 9.59968C8.80117 10.0415 8.443 10.3997 8.00117 10.3997C7.55934 10.3997 7.20117 10.0415 7.20117 9.59968C7.20117 9.15785 7.55934 8.79968 8.00117 8.79968C8.443 8.79968 8.80117 9.15785 8.80117 9.59968Z" fill="#8B91A8"/>
<path d="M8.80117 12.7997C8.80117 13.2415 8.443 13.5997 8.00117 13.5997C7.55934 13.5997 7.20117 13.2415 7.20117 12.7997C7.20117 12.3579 7.55934 11.9997 8.00117 11.9997C8.443 11.9997 8.80117 12.3579 8.80117 12.7997Z" fill="#8B91A8"/>
<path d="M12.8012 9.59968C12.8012 10.0415 12.443 10.3997 12.0012 10.3997C11.5593 10.3997 11.2012 10.0415 11.2012 9.59968C11.2012 9.15785 11.5593 8.79968 12.0012 8.79968C12.443 8.79968 12.8012 9.15785 12.8012 9.59968Z" fill="#8B91A8"/>
<path d="M12.8012 12.7997C12.8012 13.2415 12.443 13.5997 12.0012 13.5997C11.5593 13.5997 11.2012 13.2415 11.2012 12.7997C11.2012 12.3579 11.5593 11.9997 12.0012 11.9997C12.443 11.9997 12.8012 12.3579 12.8012 12.7997Z" fill="#8B91A8"/>
<path d="M12.8012 15.9997C12.8012 16.4415 12.443 16.7997 12.0012 16.7997C11.5593 16.7997 11.2012 16.4415 11.2012 15.9997C11.2012 15.5579 11.5593 15.1997 12.0012 15.1997C12.443 15.1997 12.8012 15.5579 12.8012 15.9997Z" fill="#8B91A8"/>
<path d="M16.8012 9.59968C16.8012 10.0415 16.443 10.3997 16.0012 10.3997C15.5593 10.3997 15.2012 10.0415 15.2012 9.59968C15.2012 9.15785 15.5593 8.79968 16.0012 8.79968C16.443 8.79968 16.8012 9.15785 16.8012 9.59968Z" fill="#8B91A8"/>
<path d="M16.8012 12.7997C16.8012 13.2415 16.443 13.5997 16.0012 13.5997C15.5593 13.5997 15.2012 13.2415 15.2012 12.7997C15.2012 12.3579 15.5593 11.9997 16.0012 11.9997C16.443 11.9997 16.8012 12.3579 16.8012 12.7997Z" fill="#8B91A8"/>
<path d="M8.80117 15.9997C8.80117 16.4415 8.443 16.7997 8.00117 16.7997C7.55934 16.7997 7.20117 16.4415 7.20117 15.9997C7.20117 15.5579 7.55934 15.1997 8.00117 15.1997C8.443 15.1997 8.80117 15.5579 8.80117 15.9997Z" fill="#8B91A8"/>
</g>
</g>
</g>
</svg>
