<svg width="24" height="24" viewBox="0 0 24 24" fill="none" xmlns="http://www.w3.org/2000/svg">
<path d="M7.41982 6.20972C7.04319 6.20981 6.68199 6.35944 6.41571 6.6258C6.14943 6.89214 5.99991 7.25346 6 7.63009C6.00009 8.00662 6.14972 8.36776 6.41599 8.63401C6.68233 8.90029 7.04347 9.04991 7.4201 9.04991C7.79672 9.04991 8.15793 8.90028 8.4242 8.63392C8.69055 8.36764 8.84019 8.00644 8.84019 7.62981V7.62927C8.84001 7.25274 8.69029 6.89161 8.42393 6.62535C8.15758 6.35916 7.79636 6.20962 7.41982 6.20972ZM10.3895 6.21348C10.2132 6.21348 10.0714 6.35029 10.0714 6.52027V8.73943C10.0714 8.90932 10.2132 9.04622 10.3895 9.04622H17.6819C17.8582 9.04622 18 8.90941 18 8.73943V6.52027C18 6.35038 17.8582 6.21348 17.6819 6.21348H10.3895ZM7.41982 10.5797C7.04319 10.5798 6.68199 10.7294 6.41571 10.9958C6.14943 11.2621 5.99991 11.6233 6 12C6.00009 12.3766 6.14972 12.7377 6.41599 13.004C6.68233 13.2703 7.04347 13.4198 7.4201 13.4198C7.79672 13.4198 8.15793 13.2702 8.4242 13.0039C8.69055 12.7376 8.84019 12.3764 8.84019 11.9998V11.9992C8.84001 11.6227 8.69029 11.2616 8.42393 10.9953C8.15758 10.7291 7.79636 10.5796 7.41982 10.5797ZM10.3895 10.5835C10.2132 10.5835 10.0714 10.7203 10.0714 10.8902V13.1094C10.0714 13.2793 10.2132 13.4162 10.3895 13.4162H17.6819C17.8582 13.4162 18 13.2794 18 13.1094V10.8902C18 10.7204 17.8582 10.5835 17.6819 10.5835H10.3895ZM7.41982 14.9497C7.04319 14.9497 6.68199 15.0994 6.41571 15.3657C6.14943 15.6321 5.99991 15.9933 6 16.3699C6.00009 16.7466 6.14972 17.1077 6.41599 17.374C6.68233 17.6402 7.04347 17.7898 7.4201 17.7898C7.79672 17.7898 8.15793 17.6401 8.4242 17.3739C8.69055 17.1075 8.84019 16.7463 8.84019 16.3697V16.3691V16.3692C8.84001 15.9926 8.69029 15.6315 8.42393 15.3653C8.15758 15.0991 7.79636 14.9496 7.41982 14.9497ZM10.3895 14.9534C10.2132 14.9534 10.0714 15.0902 10.0714 15.2602V17.4794C10.0714 17.6493 10.2132 17.7862 10.3895 17.7862H17.6819C17.8582 17.7862 18 17.6494 18 17.4794V15.2602C18 15.0903 17.8582 14.9534 17.6819 14.9534H10.3895Z" fill="#EF6E4E"/>
</svg>
