<svg width="24" height="24" viewBox="0 0 24 24" fill="none" xmlns="http://www.w3.org/2000/svg">
<path d="M17.3999 10.1465C16.1933 10.1465 15.6999 9.29312 16.2999 8.24646C16.4665 7.95549 16.5109 7.61035 16.4234 7.28668C16.3359 6.96302 16.1237 6.68724 15.8333 6.51979L14.6799 5.85979C14.4252 5.71161 14.1222 5.67051 13.8372 5.7455C13.5523 5.82049 13.3087 6.00544 13.1599 6.25979L13.0866 6.38646C12.4866 7.43313 11.4999 7.43313 10.8933 6.38646L10.8199 6.25979C10.7481 6.13378 10.6518 6.02332 10.5369 5.93484C10.4219 5.84635 10.2905 5.78162 10.1503 5.74439C10.0101 5.70717 9.8639 5.6982 9.72019 5.71801C9.57649 5.73783 9.43816 5.78602 9.31325 5.85979L8.15992 6.51979C7.86873 6.68827 7.65614 6.96525 7.56868 7.2901C7.48122 7.61495 7.52601 7.96122 7.69325 8.25312C8.29992 9.29312 7.80659 10.1465 6.59992 10.1465C6.2643 10.1475 5.94273 10.2813 5.70542 10.5186C5.4681 10.7559 5.33431 11.0775 5.33325 11.4131V12.5865C5.33431 12.9221 5.4681 13.2436 5.70542 13.481C5.94273 13.7183 6.2643 13.8521 6.59992 13.8531C7.80659 13.8531 8.29992 14.7065 7.69325 15.7531C7.52668 16.0441 7.48227 16.3892 7.56975 16.7129C7.65722 17.0366 7.86945 17.3123 8.15992 17.4798L9.31325 18.1398C9.56794 18.288 9.87101 18.3291 10.156 18.2541C10.4409 18.1791 10.6845 17.9941 10.8333 17.7398L10.9066 17.6131C11.5066 16.5665 12.4933 16.5665 13.0999 17.6131L13.1733 17.7398C13.322 17.9941 13.5656 18.1791 13.8505 18.2541C14.1355 18.3291 14.4386 18.288 14.6933 18.1398L15.8466 17.4798C16.1371 17.3123 16.3493 17.0366 16.4368 16.7129C16.5242 16.3892 16.4798 16.0441 16.3133 15.7531C15.7066 14.7065 16.1999 13.8531 17.4066 13.8531C17.7422 13.8521 18.0638 13.7183 18.3011 13.481C18.5384 13.2436 18.6722 12.9221 18.6733 12.5865V11.4131C18.6696 11.0772 18.534 10.7561 18.2959 10.5192C18.0577 10.2822 17.7359 10.1484 17.3999 10.1465ZM11.9999 14.1665C11.5714 14.1665 11.1525 14.0394 10.7962 13.8013C10.4399 13.5632 10.1622 13.2248 9.99818 12.8289C9.83419 12.433 9.79128 11.9974 9.87488 11.5771C9.95849 11.1568 10.1648 10.7707 10.4679 10.4677C10.7709 10.1647 11.1569 9.95836 11.5772 9.87476C11.9975 9.79116 12.4332 9.83406 12.8291 9.99805C13.225 10.162 13.5634 10.4397 13.8014 10.7961C14.0395 11.1524 14.1666 11.5713 14.1666 11.9998C14.1655 12.5741 13.9369 13.1246 13.5308 13.5307C13.1247 13.9368 12.5742 14.1654 11.9999 14.1665Z" fill="#8B91A8"/>
</svg>
