<svg width="24" height="24" viewBox="0 0 24 24" fill="none" xmlns="http://www.w3.org/2000/svg">
<path d="M17.9377 11.312V7.06201C17.9377 6.12451 17.5377 5.74951 16.544 5.74951H14.019C13.0252 5.74951 12.6252 6.12451 12.6252 7.06201V11.312C12.6252 12.2495 13.0252 12.6245 14.019 12.6245H16.544C17.5377 12.6245 17.9377 12.2495 17.9377 11.312Z" fill="#EF6E4E"/>
<path d="M11.3752 12.687V16.937C11.3752 17.8745 10.9752 18.2495 9.98149 18.2495H7.45649C6.46274 18.2495 6.06274 17.8745 6.06274 16.937V12.687C6.06274 11.7495 6.46274 11.3745 7.45649 11.3745H9.98149C10.9752 11.3745 11.3752 11.7495 11.3752 12.687Z" fill="#EF6E4E"/>
<path d="M17.9377 16.9373V15.1873C17.9377 14.2498 17.5377 13.8748 16.544 13.8748H14.019C13.0252 13.8748 12.6252 14.2498 12.6252 15.1873V16.9373C12.6252 17.8748 13.0252 18.2498 14.019 18.2498H16.544C17.5377 18.2498 17.9377 17.8748 17.9377 16.9373Z" fill="#EF6E4E"/>
<path d="M11.3752 8.81201V7.06201C11.3752 6.12451 10.9752 5.74951 9.98149 5.74951H7.45649C6.46274 5.74951 6.06274 6.12451 6.06274 7.06201V8.81201C6.06274 9.74951 6.46274 10.1245 7.45649 10.1245H9.98149C10.9752 10.1245 11.3752 9.74951 11.3752 8.81201Z" fill="#EF6E4E"/>
</svg>
