<svg width="16" height="16" viewBox="0 0 16 16" fill="none" xmlns="http://www.w3.org/2000/svg">
<path d="M8.23311 0.0156647C8.52111 0.0907952 8.77467 0.297402 8.90615 0.566619L8.98441 0.723139L8.9938 4.71129L9.00006 8.70258L9.99554 7.71336C10.9065 6.80554 11.0035 6.72102 11.1694 6.65841C11.3917 6.57702 11.6828 6.57076 11.8988 6.64589C12.1086 6.71789 12.4122 7.02154 12.4842 7.23128C12.5594 7.44728 12.5531 7.73841 12.4717 7.96067C12.4091 8.13284 12.3027 8.24554 10.4901 10.0549C8.96876 11.5763 8.54615 11.9833 8.42094 12.0427C8.19868 12.1492 7.79798 12.1492 7.57572 12.0427C7.45051 11.9833 7.0279 11.5763 5.50652 10.0549C3.67209 8.22049 3.58757 8.13597 3.52183 7.95441C3.43418 7.71023 3.44357 7.36589 3.54688 7.15615C3.63453 6.97145 3.83487 6.76798 4.01957 6.68033C4.23244 6.57389 4.57365 6.5645 4.82096 6.65841C4.99626 6.72102 5.07765 6.79302 6.00112 7.71336L6.9966 8.70258L7.00286 4.71129L7.01225 0.723139L7.11868 0.525923C7.29712 0.197229 7.56946 0.0250564 7.93259 0.00314291C8.04529 -0.00311795 8.1799 1.29705e-05 8.23311 0.0156647Z" fill="#5D678F"/>
<path d="M15.2451 14.0404C15.5269 14.1092 15.7867 14.3221 15.9182 14.5913C16.0246 14.8073 16.0277 15.2111 15.9244 15.4209C15.818 15.6431 15.6897 15.7746 15.4737 15.8936L15.2764 16L7.99822 16L0.719997 16L0.560347 15.9155C0.322434 15.7903 0.225391 15.6963 0.106436 15.4772C0.0093928 15.2957 1.01853e-06 15.2581 1.03988e-06 15.0139C1.06123e-06 14.7697 0.00939285 14.7322 0.106436 14.5506C0.222262 14.3346 0.353739 14.2094 0.579128 14.0998L0.719998 14.0278L7.93561 14.0216C11.905 14.0216 15.1919 14.0278 15.2451 14.0404Z" fill="#5D678F"/>
</svg>
