<svg width="20" height="20" viewBox="0 0 20 20" fill="none" xmlns="http://www.w3.org/2000/svg">
<circle cx="10" cy="10" r="10" fill="#EF6E4E"/>
<g clip-path="url(#clip0_1763_8173)">
<path d="M8.07066 14.3043L13.0708 9.30418L10.6958 6.92922L5.6957 11.9293C5.62686 11.9983 5.57797 12.0845 5.55419 12.179L5 15L7.82047 14.4458C7.91516 14.4221 8.00179 14.3732 8.07066 14.3043ZM14.6849 7.69003C14.8867 7.48823 15 7.21457 15 6.92922C15 6.64388 14.8867 6.37022 14.6849 6.16842L13.8316 5.31507C13.6298 5.11333 13.3561 5 13.0708 5C12.7854 5 12.5118 5.11333 12.31 5.31507L11.4566 6.16842L13.8316 8.54338L14.6849 7.69003Z" fill="white"/>
</g>
<defs>
<clipPath id="clip0_1763_8173">
<rect width="10" height="10" fill="white" transform="translate(5 5)"/>
</clipPath>
</defs>
</svg>
