<svg width="28" height="28" viewBox="0 0 28 28" fill="none" xmlns="http://www.w3.org/2000/svg">
<rect width="28" height="28" rx="4" fill="#EDEFF9"/>
<path d="M13.183 19.3333C13.183 19.7844 13.5486 20.15 13.9997 20.15C14.4507 20.15 14.8163 19.7844 14.8163 19.3333V8.66667C14.8163 8.21563 14.4507 7.85 13.9997 7.85C13.5486 7.85 13.183 8.21563 13.183 8.66667V19.3333Z" fill="#31BA9E" stroke="#31BA9E" stroke-width="0.3" stroke-linecap="round"/>
<path d="M19.3333 14.8166C19.7844 14.8166 20.15 14.451 20.15 13.9999C20.15 13.5489 19.7844 13.1833 19.3333 13.1833H8.66667C8.21563 13.1833 7.85 13.5489 7.85 13.9999C7.85 14.451 8.21563 14.8166 8.66667 14.8166H19.3333Z" fill="#31BA9E" stroke="#31BA9E" stroke-width="0.3" stroke-linecap="round"/>
</svg>
