<svg width="33" height="32" viewBox="0 0 33 32" fill="none" xmlns="http://www.w3.org/2000/svg">
<circle cx="16.5" cy="16" r="16" fill="#EF6E4E"/>
<path d="M17.5435 9.04348C17.5435 8.46718 17.0763 8 16.5 8C15.9237 8 15.4565 8.46718 15.4565 9.04348V14.9565H9.54348C8.96718 14.9565 8.5 15.4237 8.5 16C8.5 16.5763 8.96718 17.0435 9.54348 17.0435H15.4565V22.9565C15.4565 23.5328 15.9237 24 16.5 24C17.0763 24 17.5435 23.5328 17.5435 22.9565V17.0435H23.4565C24.0328 17.0435 24.5 16.5763 24.5 16C24.5 15.4237 24.0328 14.9565 23.4565 14.9565H17.5435V9.04348Z" fill="white"/>
</svg>
