<svg width="123" height="38" viewBox="0 0 123 38" fill="none" xmlns="http://www.w3.org/2000/svg">
<path d="M66.2402 17.516C66.4069 17.5212 66.5727 17.4907 66.7263 17.4267C66.8798 17.3627 67.0176 17.2666 67.1301 17.1451C67.3858 16.8318 67.5095 16.4332 67.4756 16.0322V6.64351C67.5109 6.24293 67.3885 5.84432 67.1339 5.53066C67.0206 5.40903 66.8822 5.31293 66.728 5.24891C66.5738 5.1849 66.4074 5.15448 66.2402 5.15971C66.0746 5.1536 65.9096 5.18367 65.7571 5.24779C65.6046 5.31191 65.4682 5.4085 65.3579 5.53066C65.1136 5.84902 64.9972 6.24543 65.0312 6.64351V16.0396C64.999 16.4381 65.1166 16.8343 65.3616 17.1525C65.4723 17.2728 65.6083 17.3677 65.7601 17.4305C65.9119 17.4933 66.0758 17.5225 66.2402 17.516Z" fill="#2A3A80"/>
<path d="M71.6018 17.2079H78.2478C78.5613 17.2307 78.8721 17.1368 79.119 16.9445C79.2152 16.858 79.2913 16.7518 79.3419 16.6333C79.3925 16.5148 79.4163 16.3868 79.4118 16.2583C79.4178 16.1268 79.3947 15.9957 79.3441 15.874C79.2935 15.7522 79.2167 15.6429 79.119 15.5535C78.8728 15.3599 78.5615 15.2658 78.2478 15.2901H72.5518V11.8959H77.6246C77.9267 11.9209 78.2268 11.8291 78.4619 11.64C78.5528 11.555 78.6243 11.4518 78.6716 11.3372C78.7188 11.2227 78.7408 11.0995 78.736 10.976C78.7407 10.8537 78.7183 10.7319 78.6703 10.6191C78.6223 10.5063 78.5499 10.4053 78.4581 10.3231C78.2217 10.1399 77.9241 10.0512 77.6246 10.0746H72.5518V7.14407H78.0601C78.3715 7.16913 78.681 7.07779 78.9275 6.88811C79.0224 6.80248 79.0972 6.6973 79.1465 6.58001C79.1958 6.46271 79.2184 6.33616 79.2128 6.20927C79.2181 6.08352 79.1953 5.95817 79.1459 5.84213C79.0966 5.72609 79.022 5.6222 78.9275 5.53786C78.681 5.34818 78.3715 5.25684 78.0601 5.2819H71.6018C71.3103 5.27133 71.0198 5.3219 70.7495 5.43028C70.5322 5.52607 70.3583 5.69781 70.2614 5.91252C70.1463 6.1808 70.0925 6.47083 70.1037 6.76199V15.7278C70.0662 16.1355 70.1915 16.5415 70.4529 16.8592C70.6117 16.9892 70.795 17.087 70.9921 17.1468C71.1893 17.2067 71.3965 17.2274 71.6018 17.2079Z" fill="#2A3A80"/>
<path d="M81.6566 17.412C81.8031 17.4255 81.9507 17.4043 82.0872 17.3501C82.2237 17.2959 82.3451 17.2103 82.4414 17.1004C82.6818 16.7218 82.8747 16.3157 83.0159 15.8911L83.5941 14.3628H88.5016L89.0799 15.8466C89.155 16.0321 89.2488 16.2435 89.354 16.4846C89.4322 16.675 89.533 16.8556 89.6544 17.0225C89.748 17.1386 89.8658 17.2335 89.9998 17.3007C90.1552 17.3708 90.3247 17.405 90.4954 17.4009C90.6527 17.4035 90.8088 17.3743 90.9541 17.3149C91.0994 17.2556 91.2308 17.1674 91.3403 17.0559C91.4453 16.9612 91.5302 16.8469 91.5902 16.7195C91.6501 16.5922 91.6839 16.4543 91.6895 16.314C91.6403 15.8691 91.5133 15.4361 91.314 15.0342L88.1599 7.33701C88.0135 6.96606 87.8896 6.64705 87.7845 6.41335C87.6836 6.18525 87.5577 5.96879 87.409 5.7679C87.2655 5.56402 87.0767 5.39526 86.857 5.27453C86.5942 5.13988 86.3006 5.07471 86.0047 5.08535C85.7125 5.07546 85.4227 5.14064 85.1636 5.27453C84.9428 5.39694 84.7539 5.56838 84.6117 5.77532C84.4506 6.01984 84.3171 6.28107 84.2136 6.55431L83.8982 7.35556L80.808 15.101C80.6829 15.4101 80.5928 15.6574 80.5377 15.8429C80.4837 16.0058 80.4559 16.176 80.4551 16.3474C80.4588 16.4884 80.4921 16.6272 80.5528 16.7549C80.6136 16.8826 80.7005 16.9964 80.808 17.0893C80.9199 17.1971 81.0529 17.2813 81.1988 17.3368C81.3446 17.3923 81.5004 17.4178 81.6566 17.412ZM86.0235 7.62264L87.8596 12.5451H84.2512L86.0235 7.62264Z" fill="#2A3A80"/>
<path d="M101.752 16.9373C101.855 16.8493 101.937 16.7397 101.991 16.6165C102.046 16.4932 102.072 16.3595 102.067 16.225C102.071 16.0898 102.044 15.9555 101.989 15.8317C101.934 15.708 101.851 15.5978 101.748 15.5091C101.492 15.3042 101.168 15.2022 100.839 15.2235H95.8831V6.54328C95.915 6.14307 95.793 5.74569 95.5414 5.43043C95.4279 5.30919 95.2894 5.21335 95.1352 5.14937C94.9811 5.08538 94.8149 5.05474 94.6478 5.05949C94.4828 5.05392 94.3185 5.08426 94.1667 5.14837C94.0148 5.21247 93.8791 5.30876 93.7691 5.43043C93.5199 5.74659 93.4006 6.144 93.435 6.54328V15.728C93.3975 16.1357 93.5228 16.5417 93.7842 16.8594C93.943 16.9894 94.1263 17.0871 94.3234 17.147C94.5206 17.2068 94.7278 17.2276 94.9331 17.2081H100.839C101.167 17.2319 101.492 17.1355 101.752 16.9373Z" fill="#2A3A80"/>
<path d="M110.11 7.00321C110.212 6.91271 110.293 6.80096 110.347 6.67592C110.401 6.55089 110.426 6.41565 110.421 6.27986C110.426 6.14441 110.401 6.00951 110.348 5.88457C110.295 5.75963 110.215 5.64767 110.113 5.55651C109.844 5.35434 109.508 5.25669 109.171 5.28201H101.395C101.067 5.25927 100.741 5.3541 100.478 5.54909C100.371 5.63998 100.286 5.75427 100.231 5.883C100.175 6.01172 100.151 6.15137 100.159 6.29099C100.154 6.42615 100.178 6.56087 100.231 6.68579C100.283 6.81072 100.363 6.92283 100.463 7.01434C100.729 7.21539 101.061 7.31188 101.395 7.28513H104.064V15.9505C104.03 16.3509 104.152 16.7491 104.406 17.0633C104.518 17.1848 104.655 17.2809 104.808 17.3449C104.961 17.4089 105.126 17.4394 105.292 17.4343C105.456 17.4388 105.619 17.4079 105.769 17.3438C105.92 17.2798 106.054 17.184 106.163 17.0633C106.414 16.7479 106.535 16.3503 106.501 15.9505V7.274H109.171C109.507 7.29945 109.84 7.20319 110.11 7.00321Z" fill="#2A3A80"/>
<path d="M71.3396 32.4874H66.3832V23.8035C66.4166 23.4032 66.2945 23.0052 66.0415 22.6907C65.9281 22.5692 65.7897 22.4733 65.6355 22.4093C65.4813 22.3453 65.315 22.3147 65.1479 22.3197C64.9829 22.3142 64.8186 22.3445 64.6668 22.4086C64.515 22.4727 64.3792 22.569 64.2693 22.6907C64.0213 23.0075 63.9022 23.4044 63.9351 23.8035V32.9919C63.8949 33.1953 63.9059 33.4054 63.9672 33.6036C64.0284 33.8018 64.1381 33.9821 64.2864 34.1287C64.4347 34.2752 64.6172 34.3835 64.8179 34.444C65.0185 34.5045 65.2311 34.5154 65.437 34.4757H71.3396C71.6676 34.4985 71.9925 34.4008 72.252 34.2012C72.355 34.1133 72.4368 34.0037 72.4914 33.8804C72.546 33.7572 72.5719 33.6235 72.5674 33.489C72.5702 33.3539 72.5431 33.2198 72.488 33.0962C72.4328 32.9725 72.351 32.8622 72.2482 32.7731C71.9926 32.5682 71.6681 32.4662 71.3396 32.4874Z" fill="#2A3A80"/>
<path d="M80.7561 24.5937C80.6097 24.2227 80.4858 23.9 80.3807 23.67C80.2798 23.4419 80.1539 23.2255 80.0052 23.0246C79.8627 22.8198 79.6737 22.6508 79.4532 22.5312C79.1908 22.3951 78.8971 22.3287 78.6009 22.3383C78.3083 22.3296 78.0185 22.396 77.7598 22.5312C77.5373 22.6513 77.3479 22.8232 77.2078 23.032C77.046 23.2748 76.9125 23.5349 76.8098 23.8073L76.4944 24.6085L73.4042 32.3577C73.2791 32.6643 73.1889 32.9116 73.1339 33.0996C73.0799 33.2624 73.0521 33.4327 73.0513 33.604C73.055 33.7451 73.0882 33.8839 73.149 34.0116C73.2097 34.1393 73.2967 34.2531 73.4042 34.3459C73.6203 34.5595 73.9134 34.6796 74.219 34.6798C74.3659 34.6935 74.5139 34.672 74.6505 34.6171C74.7871 34.5622 74.9083 34.4756 75.0038 34.3645C75.2449 33.9863 75.4379 33.5801 75.5783 33.1552L76.1565 31.6269H81.1016L81.6798 33.1107C81.7549 33.2924 81.8488 33.5076 81.9539 33.7487C82.0329 33.9388 82.1337 34.1193 82.2543 34.2866C82.3481 34.4016 82.4659 34.4953 82.5997 34.5611C82.7542 34.6343 82.9241 34.6699 83.0954 34.665C83.2531 34.6685 83.4097 34.6393 83.5553 34.5792C83.7008 34.5192 83.832 34.4296 83.9402 34.3163C84.0478 34.2197 84.1343 34.1025 84.1943 33.9717C84.2544 33.8409 84.2867 33.6994 84.2894 33.5558C84.2396 33.1123 84.1126 32.6806 83.9139 32.2798L80.7561 24.5937ZM76.8286 29.8092L78.6159 24.8867L80.437 29.8092H76.8286Z" fill="#2A3A80"/>
<path d="M92.7895 22.3385C92.6155 22.3338 92.4429 22.3707 92.2864 22.446C92.1423 22.5221 92.0147 22.6255 91.9109 22.7502C91.7978 22.8847 91.6948 23.0273 91.603 23.1768L91.2576 23.7406L88.9859 27.3611L86.733 23.7406C86.5043 23.3499 86.2444 22.9777 85.9558 22.6278C85.8576 22.5314 85.74 22.4565 85.6106 22.408C85.4813 22.3594 85.343 22.3383 85.2048 22.3459C84.9068 22.3382 84.6178 22.4476 84.4013 22.65C84.2992 22.74 84.2176 22.8503 84.1619 22.9737C84.1062 23.0971 84.0778 23.2309 84.0784 23.366C84.0885 23.5725 84.1422 23.7747 84.2361 23.9595C84.4018 24.2853 84.5848 24.6023 84.7843 24.9091L87.7356 29.4273V33.211C87.703 33.6101 87.8222 34.0068 88.0697 34.3238C88.185 34.4393 88.3224 34.5311 88.4739 34.5937C88.6254 34.6563 88.7879 34.6885 88.9521 34.6885C89.1163 34.6885 89.2789 34.6563 89.4304 34.5937C89.5819 34.5311 89.7192 34.4393 89.8345 34.3238C90.0891 34.01 90.2127 33.6119 90.1799 33.211V29.4199L93.1838 24.8386C93.3802 24.5563 93.5595 24.2628 93.7207 23.9595C93.819 23.762 93.8716 23.5453 93.8747 23.3252C93.8744 23.1954 93.847 23.0671 93.794 22.9483C93.741 22.8295 93.6636 22.7229 93.5668 22.6352C93.464 22.5367 93.3422 22.4597 93.2087 22.4087C93.0752 22.3577 92.9326 22.3338 92.7895 22.3385Z" fill="#2A3A80"/>
<path d="M103.19 28.1584C104.399 27.607 105.003 26.7327 105.003 25.5358C105.004 25.1995 104.945 24.8657 104.831 24.5491C104.714 24.238 104.544 23.9493 104.328 23.6959C104.114 23.4429 103.861 23.2261 103.577 23.0542C103.23 22.8502 102.848 22.713 102.45 22.6498C101.953 22.5729 101.451 22.5369 100.948 22.5423H97.0207C96.6138 22.5062 96.2091 22.6302 95.8942 22.8872C95.6323 23.2061 95.507 23.6135 95.545 24.0223V32.9919C95.5108 33.3923 95.6331 33.7905 95.8867 34.1047C96.0391 34.239 96.2176 34.3411 96.4112 34.4049C96.6049 34.4686 96.8097 34.4927 97.0131 34.4757H100.704C101.262 34.479 101.821 34.4481 102.375 34.3829C102.811 34.3307 103.237 34.2222 103.644 34.0602C104.221 33.8147 104.71 33.4021 105.045 32.8769C105.391 32.3386 105.572 31.7121 105.563 31.0741C105.568 29.6299 104.777 28.658 103.19 28.1584ZM97.9969 24.3562H99.9832C100.658 24.3216 101.332 24.4225 101.966 24.653C102.185 24.7636 102.366 24.9381 102.482 25.153C102.598 25.368 102.645 25.6129 102.615 25.8548C102.619 26.123 102.549 26.3871 102.413 26.619C102.255 26.9225 101.986 27.1558 101.662 27.2719C101.203 27.4009 100.727 27.4585 100.25 27.4425H97.9969V24.3562ZM100.625 32.6432H97.9969V29.1748H100.543C101.208 29.1311 101.873 29.2725 102.461 29.5829C102.677 29.7248 102.85 29.9211 102.963 30.1513C103.076 30.3815 103.124 30.6373 103.103 30.8923C103.096 32.0596 102.27 32.6432 100.625 32.6432Z" fill="#2A3A80"/>
<path d="M115.46 22.3383C115.287 22.3337 115.116 22.3706 114.96 22.4459C114.816 22.521 114.688 22.6245 114.585 22.7501C114.471 22.8837 114.368 23.0264 114.277 23.1767L113.928 23.7405L111.649 27.361L109.396 23.7405C109.167 23.3498 108.907 22.9776 108.618 22.6277C108.52 22.5313 108.403 22.4564 108.273 22.4079C108.144 22.3593 108.006 22.3381 107.868 22.3458C107.569 22.3381 107.281 22.4475 107.064 22.6499C106.961 22.739 106.878 22.8491 106.822 22.9727C106.765 23.0962 106.736 23.2304 106.737 23.3659C106.747 23.5729 106.802 23.7753 106.899 23.9594C107.062 24.2868 107.245 24.6039 107.447 24.909L110.387 29.4198V33.2034C110.354 33.6032 110.474 34.0007 110.725 34.3163C110.84 34.4322 110.977 34.5242 111.128 34.5871C111.279 34.6499 111.441 34.6823 111.605 34.6823C111.769 34.6823 111.932 34.6499 112.083 34.5871C112.234 34.5242 112.371 34.4322 112.486 34.3163C112.743 34.0037 112.868 33.605 112.835 33.2034V29.4198L115.85 24.8534C116.05 24.5667 116.232 24.2681 116.395 23.9594C116.496 23.7628 116.55 23.5457 116.552 23.3251C116.551 23.1954 116.523 23.0674 116.47 22.9487C116.417 22.8301 116.341 22.7234 116.245 22.6351C116.141 22.5361 116.018 22.4587 115.883 22.4078C115.748 22.3568 115.604 22.3332 115.46 22.3383Z" fill="#2A3A80"/>
<path d="M64.5362 11.3359C64.5429 11.1716 64.5127 11.0079 64.4478 10.8566C64.3829 10.7052 64.2848 10.5699 64.1607 10.4605C63.8381 10.2198 63.4371 10.1049 63.0342 10.1377H59.4972V6.6434C59.5306 6.24303 59.4085 5.84511 59.1555 5.53056C59.0418 5.4095 58.9033 5.31379 58.7492 5.24982C58.5951 5.18586 58.429 5.1551 58.2619 5.15961C58.0956 5.15294 57.9299 5.18274 57.7767 5.24688C57.6235 5.31102 57.4865 5.4079 57.3757 5.53056C57.1315 5.84892 57.0151 6.24533 57.0491 6.6434V10.1377H53.5196C53.1162 10.1056 52.715 10.2219 52.3931 10.4642C52.2695 10.5732 52.1717 10.7079 52.1068 10.8586C52.0419 11.0093 52.0114 11.1723 52.0176 11.3359C52.0127 11.4999 52.0437 11.6631 52.1085 11.8142C52.1733 11.9653 52.2704 12.1008 52.3931 12.2113C52.7095 12.4656 53.1131 12.5892 53.5196 12.5563H57.0716V16.0395C57.0394 16.438 57.1571 16.8342 57.402 17.1524C57.5124 17.2745 57.6487 17.3711 57.8013 17.4353C57.9538 17.4994 58.1188 17.5295 58.2844 17.5233C58.4504 17.5282 58.6156 17.4976 58.7685 17.4336C58.9215 17.3696 59.0586 17.2736 59.1705 17.1524C59.4275 16.8396 59.5526 16.4411 59.5197 16.0395V12.5563H63.0568C63.462 12.5894 63.8648 12.4686 64.1832 12.2188C64.3021 12.1048 64.395 11.9671 64.4559 11.8149C64.5167 11.6626 64.5441 11.4994 64.5362 11.3359Z" fill="#2A3A80"/>
<path d="M122.653 5.64188C122.54 5.52044 122.401 5.42448 122.247 5.36048C122.093 5.29648 121.927 5.26594 121.76 5.27094C121.593 5.26427 121.428 5.29407 121.274 5.35821C121.121 5.42235 120.984 5.51923 120.874 5.64188C120.631 5.96108 120.516 6.3572 120.551 6.75473V16.1434C120.518 16.5414 120.634 16.9375 120.877 17.2563C120.988 17.3785 121.124 17.475 121.277 17.5392C121.429 17.6033 121.594 17.6334 121.76 17.6272C121.926 17.6324 122.092 17.602 122.246 17.5379C122.399 17.4739 122.537 17.3778 122.65 17.2563C122.904 16.9425 123.028 16.5443 122.995 16.1434V6.7436C123.027 6.34676 122.905 5.95267 122.653 5.64188Z" fill="#2A3A80"/>
<path d="M118.572 10.2415H115.035V6.7435C115.071 6.34293 114.948 5.94431 114.694 5.63065C114.581 5.50882 114.442 5.41259 114.288 5.34856C114.134 5.28454 113.967 5.25422 113.8 5.25971C113.634 5.25304 113.468 5.28284 113.315 5.34698C113.162 5.41112 113.025 5.508 112.914 5.63065C112.673 5.95063 112.559 6.34614 112.591 6.7435V10.2415H109.062C108.659 10.2091 108.258 10.3239 107.935 10.5643C107.811 10.6733 107.714 10.808 107.649 10.9587C107.584 11.1094 107.553 11.2724 107.56 11.436C107.555 11.6006 107.586 11.7643 107.65 11.916C107.715 12.0677 107.812 12.2039 107.935 12.3152C108.253 12.567 108.656 12.6892 109.062 12.6564H112.591V16.1433C112.557 16.542 112.675 16.9387 112.921 17.2562C113.03 17.3793 113.166 17.4766 113.318 17.5408C113.47 17.605 113.635 17.6346 113.8 17.6271C113.967 17.6323 114.133 17.6019 114.286 17.5378C114.44 17.4738 114.578 17.3777 114.69 17.2562C114.946 16.9431 115.07 16.5444 115.035 16.1433V12.6564H118.572C118.978 12.6898 119.381 12.5691 119.699 12.3189C119.822 12.2068 119.919 12.0701 119.984 11.9177C120.049 11.7654 120.079 11.6011 120.074 11.436C120.081 11.2717 120.051 11.108 119.986 10.9567C119.921 10.8053 119.823 10.67 119.699 10.5606C119.376 10.3199 118.975 10.2062 118.572 10.2415Z" fill="#2A3A80"/>
<path d="M43.555 6.96993L39.0119 2.47403C35.7379 -0.764355 30.4739 -0.831126 27.2863 2.31823L6.83496 22.5238L26.5767 35.507L43.7164 18.5472C44.4838 17.7919 45.088 16.8905 45.4927 15.8978C45.8973 14.9051 46.0939 13.8415 46.0705 12.7716C46.0318 10.5872 45.1288 8.50462 43.555 6.96993Z" fill="#2A3A80"/>
<path d="M40.0782 10.0634L35.813 5.84946C35.1476 5.19167 34.3539 4.67427 33.48 4.32866C32.6061 3.98305 31.6702 3.81644 30.7292 3.83892C28.7901 3.87535 26.9419 4.65792 25.5779 6.0201L9.80859 21.6L24.1061 35.7739L39.9055 20.1941C42.774 17.3415 42.8528 12.8048 40.0782 10.0634Z" fill="#40C5E5"/>
<path d="M22.6268 9.09917L9.80859 21.4406L21.8796 36.4158C21.976 36.5085 22.0899 36.5813 22.2149 36.6302C22.3399 36.6791 22.4735 36.703 22.6079 36.7006C22.7423 36.6982 22.8749 36.6695 22.998 36.6162C23.1211 36.5628 23.2323 36.4859 23.3252 36.3899L36.7967 23.0914C39.6276 20.2981 39.7027 15.843 36.9731 13.1462L32.6929 8.92853C29.9633 6.22802 25.454 6.30592 22.6268 9.09917Z" fill="white"/>
<path d="M38.1408 22.201L18.2415 2.54069C15.1402 -0.523351 10.0226 -0.460289 6.83873 2.68907L2.43834 7.06626C0.909634 8.56372 0.0349844 10.5929 0.00160452 12.7195C-0.0197262 13.7595 0.171814 14.7931 0.564733 15.7582C0.957652 16.7232 1.54385 17.5999 2.28816 18.3357L4.19174 20.2127C4.33441 20.3722 4.47333 20.5354 4.62727 20.6875L21.4817 37.3394C21.693 37.5487 21.9441 37.7147 22.2205 37.828C22.4969 37.9413 22.7932 37.9996 23.0924 37.9996C23.3916 37.9996 23.6879 37.9413 23.9643 37.828C24.2407 37.7147 24.4918 37.5487 24.7031 37.3394L39.087 23.1321L38.1408 22.201ZM1.34575 12.3968C1.34575 12.4784 1.34575 12.5637 1.34575 12.6453V12.6119C1.34575 12.5378 1.35326 12.4673 1.35702 12.3968H1.34575Z" fill="#84CFC5"/>
<path d="M25.7246 25.7102C25.8586 25.7145 25.9921 25.6902 26.1158 25.639C26.2396 25.5877 26.3507 25.5108 26.4417 25.4134C26.6466 25.1629 26.7461 24.8442 26.7196 24.5232V16.941C26.7458 16.6217 26.6478 16.3046 26.4455 16.0544C26.3537 15.9572 26.2418 15.8807 26.1174 15.8301C25.993 15.7795 25.859 15.7561 25.7246 15.7613C25.5908 15.7556 25.4575 15.7792 25.3341 15.8306C25.2107 15.8819 25.1004 15.9596 25.0111 16.0581C24.817 16.3107 24.7235 16.6248 24.7483 16.941V24.5232C24.7247 24.8409 24.8195 25.1562 25.0149 25.4097C25.1029 25.509 25.2124 25.5876 25.3352 25.6396C25.458 25.6916 25.591 25.7157 25.7246 25.7102Z" fill="#2C3880"/>
<path d="M24.3507 20.7246C24.3565 20.5925 24.3326 20.4608 24.2806 20.3389C24.2287 20.217 24.15 20.1081 24.0503 20.0198C23.7947 19.8281 23.4767 19.7357 23.1567 19.7602H20.303V16.941C20.3282 16.6212 20.2288 16.3041 20.0252 16.0544C19.9334 15.9572 19.8215 15.8807 19.6971 15.8301C19.5727 15.7795 19.4387 15.7561 19.3042 15.7613C19.1705 15.7556 19.0372 15.7792 18.9138 15.8306C18.7904 15.8819 18.6801 15.9596 18.5908 16.0581C18.3983 16.3114 18.3049 16.625 18.328 16.941V19.7602H15.4818C15.1602 19.7369 14.841 19.8305 14.5844 20.0235C14.4819 20.1094 14.4002 20.2171 14.3456 20.3385C14.291 20.4599 14.2648 20.5919 14.269 20.7246C14.2647 20.8571 14.2893 20.989 14.3411 21.1112C14.393 21.2335 14.4708 21.3433 14.5694 21.4331C14.8224 21.6369 15.1452 21.7366 15.4706 21.7114H18.3167V24.5232C18.2931 24.8409 18.3879 25.1562 18.5833 25.4097C18.6713 25.509 18.7808 25.5876 18.9036 25.6396C19.0264 25.6916 19.1595 25.7157 19.293 25.7102C19.4271 25.7145 19.5605 25.6902 19.6843 25.639C19.808 25.5877 19.9192 25.5108 20.0101 25.4134C20.2164 25.1635 20.3173 24.8446 20.2918 24.5232V21.7114H23.1454C23.469 21.7362 23.79 21.6381 24.0428 21.4369C24.1432 21.3472 24.2228 21.2371 24.276 21.1142C24.3291 20.9912 24.3546 20.8583 24.3507 20.7246Z" fill="#2C3880"/>
</svg>
