<svg width="24" height="24" viewBox="0 0 24 24" fill="none" xmlns="http://www.w3.org/2000/svg">
<path d="M13.4686 5.74953H10.5311C10.2187 5.74886 9.9188 5.87224 9.69731 6.09256C9.47582 6.31288 9.35085 6.61212 9.34985 6.92453V7.51203C9.34969 7.66637 9.37997 7.81924 9.43896 7.96187C9.49795 8.1045 9.5845 8.2341 9.69364 8.34324C9.80278 8.45238 9.93237 8.53893 10.075 8.59792C10.2176 8.65691 10.3705 8.68719 10.5249 8.68703H13.4686C13.623 8.68719 13.7758 8.65691 13.9185 8.59792C14.0611 8.53893 14.1907 8.45238 14.2998 8.34324C14.409 8.2341 14.4955 8.1045 14.5545 7.96187C14.6135 7.81924 14.6438 7.66637 14.6436 7.51203V6.92453C14.6443 6.77001 14.6145 6.61689 14.5557 6.47399C14.4969 6.3311 14.4104 6.20127 14.3011 6.09201C14.1919 5.98276 14.062 5.89623 13.9191 5.83745C13.7762 5.77866 13.6231 5.74878 13.4686 5.74953Z" fill="#EF6E4E"/>
<path d="M15.2749 7.51246C15.2733 7.99101 15.0824 8.44948 14.744 8.78786C14.4057 9.12624 13.9472 9.31707 13.4687 9.31871H10.5312C10.0526 9.31707 9.59414 9.12624 9.25576 8.78786C8.91738 8.44948 8.72655 7.99101 8.7249 7.51246C8.72401 7.4322 8.70244 7.35351 8.66226 7.28401C8.62209 7.21452 8.56468 7.15655 8.49557 7.11571C8.42646 7.07487 8.34799 7.05255 8.26773 7.05088C8.18748 7.04922 8.10815 7.06828 8.0374 7.10621C7.58975 7.3446 7.2154 7.7003 6.95446 8.1352C6.69352 8.57009 6.55584 9.06779 6.55615 9.57497V15.4562C6.55797 16.1966 6.85289 16.9062 7.37643 17.4297C7.89997 17.9532 8.60951 18.2482 9.3499 18.25H14.6499C15.3903 18.2482 16.0998 17.9532 16.6234 17.4297C17.1469 16.9062 17.4418 16.1966 17.4437 15.4562V9.57497C17.444 9.06779 17.3063 8.57009 17.0453 8.1352C16.7844 7.7003 16.4101 7.3446 15.9624 7.10621C15.8917 7.06828 15.8123 7.04922 15.7321 7.05088C15.6518 7.05255 15.5733 7.07487 15.5042 7.11571C15.4351 7.15655 15.3777 7.21452 15.3375 7.28401C15.2974 7.35351 15.2758 7.4322 15.2749 7.51246ZM12.2374 15.0937H9.4999C9.37558 15.0937 9.25635 15.0443 9.16845 14.9564C9.08054 14.8685 9.03115 14.7493 9.03115 14.625C9.03115 14.5006 9.08054 14.3814 9.16845 14.2935C9.25635 14.2056 9.37558 14.1562 9.4999 14.1562H12.2374C12.3617 14.1562 12.481 14.2056 12.5689 14.2935C12.6568 14.3814 12.7062 14.5006 12.7062 14.625C12.7062 14.7493 12.6568 14.8685 12.5689 14.9564C12.481 15.0443 12.3617 15.0937 12.2374 15.0937ZM13.8749 12.5937H9.4999C9.37558 12.5937 9.25635 12.5443 9.16845 12.4564C9.08054 12.3685 9.03115 12.2493 9.03115 12.125C9.03115 12.0006 9.08054 11.8814 9.16845 11.7935C9.25635 11.7056 9.37558 11.6562 9.4999 11.6562H13.8749C13.9992 11.6562 14.1185 11.7056 14.2064 11.7935C14.2943 11.8814 14.3437 12.0006 14.3437 12.125C14.3437 12.2493 14.2943 12.3685 14.2064 12.4564C14.1185 12.5443 13.9992 12.5937 13.8749 12.5937Z" fill="#EF6E4E"/>
</svg>
