<svg width="24" height="24" viewBox="0 0 24 24" fill="none" xmlns="http://www.w3.org/2000/svg">
<path fill-rule="evenodd" clip-rule="evenodd" d="M11.9727 6.56763C13.7114 6.56763 15.1242 7.98041 15.1242 9.71917C15.1242 11.4579 13.7114 12.8707 11.9727 12.8707C10.2882 12.8707 8.87549 11.4579 8.87549 9.71917C8.87549 7.98041 10.2883 6.56763 11.9727 6.56763Z" fill="#EF6E4E"/>
<path fill-rule="evenodd" clip-rule="evenodd" d="M11.9727 5.04596C14.2549 4.28523 13.7114 4.06785 14.9611 6.07838C17.2434 6.94781 17.026 6.40446 16.6456 8.74096C17.7867 10.8601 17.9497 10.2624 16.1022 11.7838C15.6132 14.1746 16.0479 13.7943 13.657 13.7943C11.7009 15.2614 12.2985 15.3158 10.3968 13.8486C8.00597 13.7943 8.38622 14.229 7.95155 11.8925C6.10411 10.3167 6.1584 10.9144 7.3538 8.84965C6.97344 6.45886 6.70175 6.94779 8.92958 6.13275C10.2337 4.12222 9.63591 4.28532 11.9724 5.04605L11.9727 5.04596ZM11.9727 6.07838C13.7658 5.53503 13.3312 5.31765 14.3092 6.89342C16.1023 7.54548 15.885 7.1108 15.6133 8.95826C16.537 10.5884 16.5914 10.1537 15.1786 11.349C14.7983 13.1965 15.1243 12.8705 13.2768 12.9248C11.7553 14.0659 12.2443 14.0659 10.7773 12.9248C8.87543 12.8705 9.20151 13.1965 8.82114 11.4034C7.40836 10.1536 7.46264 10.6426 8.38649 9.01257C8.1148 7.16514 7.84314 7.5455 9.63629 6.94773C10.6144 5.31757 10.1796 5.48066 11.9728 6.0783L11.9727 6.07838Z" fill="#EF6E4E"/>
<path fill-rule="evenodd" clip-rule="evenodd" d="M11.3208 14.7726L8.71257 19.4999L7.95184 17.3807L5.77832 17.8698L8.16911 13.5771C8.38649 14.1205 8.82116 13.9575 10.3426 14.0118C10.7773 14.3379 11.049 14.6095 11.3207 14.7725L11.3208 14.7726Z" fill="#EF6E4E"/>
<path fill-rule="evenodd" clip-rule="evenodd" d="M12.679 14.7726L15.2871 19.4999L16.0479 17.3807L18.2214 17.8698L15.8306 13.5771C15.6132 14.0662 15.2329 13.9575 13.7115 13.9575C13.2768 14.3379 12.9508 14.6096 12.6791 14.7726H12.679Z" fill="#EF6E4E"/>
</svg>
