<svg width="24" height="24" viewBox="0 0 24 24" fill="none" xmlns="http://www.w3.org/2000/svg">
<path d="M14.7113 18.0222L14.145 18.3088C13.2803 18.7463 12.2676 18.8117 11.3743 18.4905L4.56011 15.5402C4.33872 15.4605 4.16479 15.2934 4.07036 15.0702C3.97276 14.8373 3.97659 14.5708 4.08253 14.3397C4.27324 13.9215 4.74499 13.7233 5.16757 13.8947L9.62291 15.3918C9.78956 15.5368 9.99535 15.6239 10.2175 15.6333L13.438 15.7674H13.4451C13.5406 15.7674 13.6197 15.6923 13.6239 15.5962C13.6279 15.4974 13.5513 15.4141 13.4526 15.4101L10.2322 15.276C10.0813 15.2695 9.94177 15.2065 9.83227 15.1014C9.83082 15.0999 9.82976 15.0989 9.8283 15.0982C9.81931 15.0892 9.809 15.0825 9.8008 15.0732C9.68018 14.9412 9.61868 14.7681 9.62727 14.5849C9.64513 14.2171 9.94495 13.9278 10.2981 13.9445L12.0721 14.0186C12.8374 14.049 13.5991 13.8594 14.2693 13.4663C14.88 13.1079 15.572 12.9329 16.2709 12.963L17.1083 12.9976L17.0196 15.192L16.8869 17.6143L16.6322 17.6036C15.976 17.5765 15.3074 17.721 14.7113 18.0222ZM19.5293 18.4225L17.8375 18.352C17.6654 18.3449 17.508 18.2722 17.3939 18.1478C17.2866 18.0305 17.2314 17.8798 17.239 17.7246L17.3767 15.2083L17.4707 12.8804C17.4864 12.5556 17.7669 12.3013 18.1046 12.3013C18.1139 12.3013 18.1233 12.3013 18.1329 12.3019L20 12.3506L19.5293 18.4225Z" fill="#8B91A8"/>
<path d="M6.67803 9.88714H8.51759C8.65673 9.88714 8.7702 10.0002 8.7702 10.1397V11.9793C8.7702 12.1188 8.88289 12.2319 9.02281 12.2319H10.7529C10.892 12.2319 11.0051 12.1188 11.0051 11.9793L11.005 10.1397C11.005 10.0002 11.118 9.88714 11.2576 9.88714H13.0967C13.2366 9.88714 13.3493 9.77406 13.3493 9.63453V7.90446C13.3493 7.76493 13.2366 7.65185 13.0967 7.65185H11.2576C11.118 7.65185 11.005 7.53878 11.005 7.39924V5.56023C11.005 5.4207 10.8919 5.30762 10.7527 5.30762H9.02268C8.88275 5.30762 8.77007 5.4207 8.77007 5.56023V7.39938C8.77007 7.53891 8.65673 7.65199 8.51746 7.65199H6.6779C6.53837 7.65199 6.42529 7.76507 6.42529 7.9046V9.63466C6.42556 9.77406 6.53851 9.88714 6.67803 9.88714Z" fill="#8B91A8"/>
</svg>
