<svg width="16" height="16" viewBox="0 0 16 16" fill="none" xmlns="http://www.w3.org/2000/svg">
<path d="M12.8678 6.58529C13.6921 6.58529 14.4826 6.25789 15.0656 5.67507C15.6485 5.09225 15.9761 4.3017 15.9762 3.47737C15.9765 2.65305 15.6492 1.86237 15.0665 1.27929C14.4836 0.696204 13.6932 0.368553 12.8689 0.368164C12.0446 0.367911 11.2539 0.694941 10.6707 1.27763C10.0875 1.8602 9.75956 2.65065 9.75917 3.47498V3.52938L5.36663 5.85257C4.79316 5.24646 4.00009 4.89643 3.16588 4.88098C2.33168 4.86568 1.5262 5.18625 0.930845 5.77086C0.335359 6.35533 0 7.15472 0 7.98906C0 8.82339 0.335359 9.62278 0.930845 10.2073C1.5262 10.7919 2.33168 11.1124 3.16588 11.0971C4.00009 11.0817 4.79316 10.7317 5.36663 10.1255L9.76112 12.4487V12.5031C9.75808 13.5147 10.2458 14.4649 11.0695 15.0523C11.893 15.6396 12.9503 15.791 13.9056 15.4586C14.861 15.1262 15.5959 14.3512 15.877 13.3795C16.1583 12.4078 15.9507 11.36 15.3204 10.5688C14.6901 9.77752 13.7153 9.34108 12.7053 9.39788C11.6954 9.45469 10.7757 9.99778 10.238 10.8546L6.14114 8.68918C6.25083 8.22945 6.25083 7.75049 6.14114 7.29087L10.2364 5.12351C10.8031 6.03159 11.7975 6.58394 12.868 6.58533L12.8678 6.58529ZM12.8678 11.025C13.2592 11.025 13.6348 11.1806 13.9116 11.4574C14.1885 11.7343 14.344 12.1098 14.344 12.5014C14.344 12.8929 14.1885 13.2684 13.9116 13.5453C13.6348 13.8221 13.2592 13.9776 12.8678 13.9776C12.4762 13.9776 12.1006 13.8221 11.8238 13.5453C11.5469 13.2684 11.3914 12.8929 11.3914 12.5014C11.3919 12.1099 11.5475 11.7347 11.8243 11.458C12.1011 11.1812 12.4763 11.0255 12.8678 11.025ZM3.11238 9.4654H3.11226C2.72084 9.46489 2.34561 9.30891 2.06906 9.03184C1.79264 8.75479 1.63742 8.37932 1.63781 7.98777C1.63819 7.59635 1.79392 7.22113 2.07084 6.94445C2.34777 6.6679 2.72327 6.51255 3.11465 6.51281C3.50607 6.51293 3.88143 6.66854 4.15824 6.94532C4.43491 7.22213 4.5904 7.59762 4.5904 7.98904C4.58989 8.38046 4.43429 8.75568 4.15749 9.03236C3.88069 9.30916 3.50546 9.46488 3.11404 9.4654H3.11238ZM12.8678 2.00393C13.2592 2.00393 13.6348 2.15953 13.9116 2.43635C14.1885 2.71328 14.344 3.08877 14.344 3.48029C14.344 3.87181 14.1885 4.24732 13.9116 4.5241C13.6348 4.80103 13.2592 4.95652 12.8678 4.95652C12.4762 4.95652 12.1006 4.80104 11.8238 4.5241C11.5469 4.24729 11.3914 3.87181 11.3914 3.48029C11.3919 3.08887 11.5475 2.71364 11.8243 2.43684C12.1011 2.16016 12.4763 2.00441 12.8678 2.00393Z" fill="#5D678F"/>
</svg>
