<svg width="24" height="24" viewBox="0 0 24 24" fill="none" xmlns="http://www.w3.org/2000/svg">
<path d="M18.9697 10.8369L17.4323 13.0627H18.6594C18.1885 16.6761 14.8428 18.9054 11.9857 18.9054C9.99533 18.9054 7.88374 17.8354 6.60665 16.1767C6.52105 16.0662 6.3641 16.0483 6.25709 16.1304C6.14651 16.216 6.12868 16.3729 6.21071 16.4799C6.90271 17.3752 7.81584 18.1207 8.85737 18.6379C9.86681 19.1373 10.9476 19.4012 11.9856 19.4012C13.5729 19.4012 15.2422 18.7806 16.5692 17.7034C18.0245 16.5192 18.9448 14.8677 19.1624 13.0591H20.5L18.9697 10.8369Z" fill="#8B91A8"/>
<path d="M5.34414 10.9369C5.81499 7.32713 9.16072 5.09419 12.0179 5.09419C14.0082 5.09419 16.1198 6.16425 17.3969 7.8229C17.4825 7.93347 17.6394 7.95131 17.7464 7.86927C17.857 7.78366 17.8748 7.62672 17.7928 7.5197C17.1008 6.6244 16.1877 5.87893 15.1461 5.3617C14.1367 4.86235 13.0559 4.59839 12.0179 4.59839C10.4307 4.59839 8.76135 5.21903 7.43434 6.29623C5.97903 7.48044 5.05875 9.13194 4.84117 10.9405H3.5L5.03736 13.1663L6.57472 10.9405H5.34414L5.34414 10.9369Z" fill="#8B91A8"/>
<path d="M7.47339 11.9996C7.47339 14.4929 9.50655 16.5189 12.0035 16.5189C14.5005 16.5189 16.5336 14.4929 16.5336 11.9996C16.5336 9.50624 14.5005 7.48022 12.0035 7.48022C9.50655 7.48022 7.47339 9.50624 7.47339 11.9996ZM12.253 8.84999V9.29586C12.9485 9.41357 13.4765 10.0199 13.4765 10.7476C13.4765 10.8867 13.3659 10.9973 13.2268 10.9973C13.0877 10.9973 12.9771 10.8867 12.9771 10.7476C12.9771 10.209 12.5384 9.77386 12.0033 9.77386C11.4683 9.77386 11.0296 10.2126 11.0296 10.7476C11.0296 11.2862 11.4683 11.7214 12.0033 11.7214C12.8166 11.7214 13.4765 12.3812 13.4765 13.1945C13.4765 13.9222 12.945 14.5285 12.253 14.6463V15.1456C12.253 15.2847 12.1424 15.3953 12.0033 15.3953C11.8642 15.3953 11.7536 15.2847 11.7536 15.1456V14.6463C11.0581 14.5286 10.5302 13.9222 10.5302 13.1945C10.5302 13.0554 10.6408 12.9448 10.7799 12.9448C10.919 12.9448 11.0295 13.0554 11.0295 13.1945C11.0295 13.7296 11.4611 14.1612 11.9926 14.1683H12.0033H12.014C12.5455 14.1611 12.9771 13.726 12.9771 13.1945C12.9771 12.6559 12.5383 12.2208 12.0033 12.2208C11.19 12.2208 10.5302 11.5609 10.5302 10.7476C10.5302 10.02 11.0616 9.41359 11.7536 9.29586V8.84999C11.7536 8.71088 11.8642 8.60031 12.0033 8.60031C12.1424 8.60031 12.253 8.71088 12.253 8.84999Z" fill="#8B91A8"/>
</svg>
