<svg width="24" height="24" viewBox="0 0 24 24" fill="none" xmlns="http://www.w3.org/2000/svg">
<path d="M11.989 16.9309C11.7558 16.9314 11.5297 16.8501 11.3501 16.7013L5.36062 10.8351C5.15676 10.6656 5.02856 10.4221 5.00422 10.1582C4.97989 9.8942 5.06141 9.63138 5.23085 9.42752C5.40029 9.22366 5.64378 9.09546 5.90774 9.07112C6.1717 9.04678 6.43452 9.1283 6.63838 9.29774L11.989 14.6449L17.3397 9.45746C17.4418 9.37454 17.5593 9.31262 17.6854 9.27525C17.8115 9.23789 17.9438 9.22581 18.0746 9.23973C18.2054 9.25364 18.3321 9.29327 18.4475 9.35633C18.563 9.4194 18.6648 9.50465 18.7472 9.6072C18.8386 9.70984 18.9079 9.83026 18.9506 9.9609C18.9933 10.0915 19.0086 10.2296 18.9954 10.3664C18.9823 10.5033 18.9411 10.6359 18.8743 10.756C18.8076 10.8762 18.7167 10.9813 18.6074 11.0647L12.6179 16.7612C12.4332 16.8865 12.2117 16.9463 11.989 16.9309Z" fill="#8B91A8"/>
</svg>
