<svg width="24" height="24" viewBox="0 0 24 24" fill="none" xmlns="http://www.w3.org/2000/svg">
<path d="M17.9035 13.0246V13.6496C17.9035 13.7314 17.8715 13.8099 17.8142 13.8683C17.7569 13.9268 17.679 13.9604 17.5973 13.9621H16.6879C16.5269 13.9663 16.3701 13.9104 16.2482 13.8052C16.1262 13.7001 16.0479 13.5532 16.0285 13.3933C16.0201 13.3018 16.032 13.2095 16.0633 13.1231C16.0946 13.0366 16.1446 12.9582 16.2098 12.8933C16.2667 12.8343 16.3353 12.7878 16.4111 12.7566C16.4869 12.7254 16.5684 12.7102 16.6504 12.7121H17.591C17.6739 12.7121 17.7534 12.745 17.812 12.8036C17.8706 12.8622 17.9035 12.9417 17.9035 13.0246Z" fill="#8B91A8"/>
<path d="M15.7438 12.4312C15.5821 12.5885 15.4655 12.7862 15.4061 13.0039C15.3468 13.2215 15.3468 13.4511 15.4063 13.6687C15.4955 13.9498 15.6734 14.1943 15.9135 14.3656C16.1535 14.5369 16.4427 14.6257 16.7375 14.6187H17.2813C17.447 14.6187 17.606 14.6845 17.7232 14.8017C17.8404 14.9189 17.9063 15.0779 17.9063 15.2437V15.3624C17.9049 15.9853 17.6569 16.5822 17.2165 17.0227C16.7761 17.4631 16.1791 17.7111 15.5563 17.7124H8.38125C7.7584 17.7111 7.16144 17.4631 6.72101 17.0227C6.28059 16.5822 6.03258 15.9853 6.03125 15.3624V11.1562C6.03057 10.7922 6.11499 10.4331 6.27776 10.1075C6.44054 9.78199 6.67716 9.499 6.96875 9.28116C7.37441 8.97156 7.87095 8.80458 8.38125 8.80616H15.5563C16.1791 8.80748 16.7761 9.0555 17.2165 9.49592C17.6569 9.93635 17.9049 10.5333 17.9063 11.1562V11.4312C17.9063 11.5969 17.8404 11.7559 17.7232 11.8731C17.606 11.9903 17.447 12.0562 17.2813 12.0562H16.6438C16.4762 12.0549 16.3102 12.0875 16.1555 12.1519C16.0009 12.2164 15.8608 12.3113 15.7438 12.4312Z" fill="#8B91A8"/>
<path d="M14.6249 7.51248C14.6603 7.55071 14.6832 7.59876 14.6907 7.65029C14.6982 7.70182 14.6899 7.7544 14.6668 7.80111C14.6438 7.84782 14.6072 7.88645 14.5618 7.91191C14.5163 7.93737 14.4643 7.94846 14.4124 7.94373L9.61304 7.93748C9.55188 7.93662 9.49231 7.91782 9.44173 7.88343C9.39114 7.84904 9.35176 7.80055 9.32847 7.74399C9.30518 7.68743 9.299 7.62527 9.3107 7.56523C9.3224 7.50519 9.35147 7.4499 9.39429 7.40623L10.4068 6.38748C10.8193 5.97909 11.3763 5.75 11.9568 5.75C12.5373 5.75 13.0943 5.97909 13.5068 6.38748L14.6005 7.49373C14.6062 7.49998 14.6187 7.50623 14.6249 7.51248Z" fill="#8B91A8"/>
</svg>
