<svg width="24" height="24" viewBox="0 0 24 24" fill="none" xmlns="http://www.w3.org/2000/svg">
<path d="M14.444 6.16626H9.55567C7.43234 6.16626 6.1665 7.43209 6.1665 9.55543V14.4438C6.1665 16.5671 7.43234 17.8329 9.55567 17.8329H14.444C16.5673 17.8329 17.8332 16.5671 17.8332 14.4438V9.55543C17.8332 7.43209 16.5673 6.16626 14.444 6.16626ZM10.8157 13.6913L9.50317 15.0038C9.46274 15.0446 9.41458 15.077 9.3615 15.099C9.30841 15.1211 9.25148 15.1323 9.194 15.1321C9.13645 15.1329 9.07934 15.1219 9.02618 15.0998C8.97302 15.0777 8.92492 15.0451 8.88484 15.0038L8.44734 14.5663C8.40584 14.5262 8.37285 14.4781 8.35031 14.425C8.32777 14.3719 8.31616 14.3148 8.31616 14.2571C8.31616 14.1994 8.32777 14.1423 8.35031 14.0892C8.37285 14.0361 8.40584 13.988 8.44734 13.9479C8.52967 13.8666 8.64075 13.8209 8.7565 13.8209C8.87225 13.8209 8.98334 13.8666 9.06567 13.9479L9.194 14.0763L10.1973 13.0729C10.2374 13.0299 10.2857 12.9955 10.3394 12.9716C10.393 12.9476 10.451 12.9348 10.5097 12.9337C10.5684 12.9327 10.6268 12.9435 10.6813 12.9655C10.7357 12.9875 10.7852 13.0203 10.8268 13.0618C10.8683 13.1034 10.9011 13.1529 10.9231 13.2073C10.9451 13.2618 10.9559 13.3202 10.9548 13.3789C10.9538 13.4376 10.941 13.4956 10.917 13.5492C10.8931 13.6029 10.8587 13.6512 10.8157 13.6913ZM10.8157 9.60793L9.50317 10.9204C9.46274 10.9613 9.41458 10.9937 9.3615 11.0157C9.30841 11.0377 9.25148 11.049 9.194 11.0488C9.13645 11.0495 9.07934 11.0386 9.02618 11.0165C8.97302 10.9944 8.92492 10.9617 8.88484 10.9204L8.44734 10.4829C8.40584 10.4428 8.37285 10.3948 8.35031 10.3417C8.32777 10.2886 8.31616 10.2315 8.31616 10.1738C8.31616 10.1161 8.32777 10.059 8.35031 10.0058C8.37285 9.95272 8.40584 9.90469 8.44734 9.86459C8.52967 9.78323 8.64075 9.7376 8.7565 9.7376C8.87225 9.7376 8.98334 9.78323 9.06567 9.86459L9.194 9.99293L10.1973 8.98959C10.2374 8.94661 10.2857 8.91213 10.3394 8.88822C10.393 8.86431 10.451 8.85145 10.5097 8.85041C10.5684 8.84938 10.6268 8.86018 10.6813 8.88219C10.7357 8.90419 10.7852 8.93694 10.8268 8.97849C10.8683 9.02003 10.9011 9.06952 10.9231 9.12399C10.9451 9.17847 10.9559 9.23682 10.9548 9.29556C10.9538 9.35431 10.941 9.41224 10.917 9.46591C10.8931 9.51957 10.8587 9.56787 10.8157 9.60793ZM15.2432 14.6946H12.1807C12.0646 14.6946 11.9534 14.6485 11.8713 14.5665C11.7893 14.4844 11.7432 14.3731 11.7432 14.2571C11.7432 14.1411 11.7893 14.0298 11.8713 13.9477C11.9534 13.8657 12.0646 13.8196 12.1807 13.8196H15.2432C15.3592 13.8196 15.4705 13.8657 15.5525 13.9477C15.6346 14.0298 15.6807 14.1411 15.6807 14.2571C15.6807 14.3731 15.6346 14.4844 15.5525 14.5665C15.4705 14.6485 15.3592 14.6946 15.2432 14.6946ZM15.2432 10.6113H12.1807C12.0646 10.6113 11.9534 10.5652 11.8713 10.4831C11.7893 10.4011 11.7432 10.2898 11.7432 10.1738C11.7432 10.0577 11.7893 9.94645 11.8713 9.8644C11.9534 9.78235 12.0646 9.73626 12.1807 9.73626H15.2432C15.3592 9.73626 15.4705 9.78235 15.5525 9.8644C15.6346 9.94645 15.6807 10.0577 15.6807 10.1738C15.6807 10.2898 15.6346 10.4011 15.5525 10.4831C15.4705 10.5652 15.3592 10.6113 15.2432 10.6113Z" fill="#8B91A8"/>
</svg>
