<svg width="24" height="24" viewBox="0 0 24 24" fill="none" xmlns="http://www.w3.org/2000/svg">
<path d="M15.4147 8.41439C15.4147 9.08974 15.2145 9.74993 14.8392 10.3115C14.464 10.873 13.9308 11.3107 13.3068 11.5691C12.6829 11.8275 11.9963 11.8952 11.3339 11.7634C10.6715 11.6317 10.0631 11.3064 9.58557 10.8289C9.10803 10.3514 8.78282 9.74293 8.65106 9.08055C8.51931 8.41818 8.58693 7.73161 8.84537 7.10767C9.10382 6.48372 9.54148 5.95043 10.103 5.57523C10.6645 5.20002 11.3247 4.99976 12.0001 4.99976C12.9057 4.99976 13.7742 5.35951 14.4146 5.99988C15.055 6.64025 15.4147 7.50877 15.4147 8.41439Z" fill="#8B91A8"/>
<path d="M12 13.5364C8.57858 13.5364 5.79224 15.831 5.79224 18.6583C5.79224 18.7489 5.82821 18.8357 5.89225 18.8998C5.95629 18.9638 6.04314 18.9998 6.1337 18.9998H17.8664C17.9569 18.9998 18.0438 18.9638 18.1078 18.8998C18.1719 18.8357 18.2078 18.7489 18.2078 18.6583C18.2078 15.831 15.4215 13.5364 12 13.5364Z" fill="#8B91A8"/>
</svg>
