<svg width="28" height="28" viewBox="0 0 28 28" fill="none" xmlns="http://www.w3.org/2000/svg">
<rect width="28" height="28" rx="4" fill="#EDEFF9"/>
<path d="M14.0007 7.85C13.5496 7.85 13.184 8.21563 13.184 8.66667V19.3333C13.184 19.7844 13.5496 20.15 14.0007 20.15C14.4517 20.15 14.8173 19.7844 14.8173 19.3333V8.66667C14.8173 8.21563 14.4517 7.85 14.0007 7.85Z" fill="#40C5E5" stroke="#40C5E5" stroke-width="0.3" stroke-linecap="round"/>
<path d="M8.66667 13.1833C8.21563 13.1833 7.85 13.5489 7.85 14C7.85 14.451 8.21563 14.8166 8.66667 14.8166H19.3333C19.7844 14.8166 20.15 14.451 20.15 14C20.15 13.5489 19.7844 13.1833 19.3333 13.1833H8.66667Z" fill="#40C5E5" stroke="#40C5E5" stroke-width="0.3" stroke-linecap="round"/>
</svg>
