<svg width="24" height="24" viewBox="0 0 24 24" fill="none" xmlns="http://www.w3.org/2000/svg">
<path d="M18.2348 8.34427L16.8543 6.9781C15.8594 5.99405 14.2598 5.97376 13.2912 6.93076L7.07666 13.0706L13.0756 17.0158L18.2838 11.8623C18.517 11.6327 18.7006 11.3589 18.8236 11.0572C18.9465 10.7555 19.0063 10.4323 18.9992 10.1072C18.9874 9.44344 18.713 8.81062 18.2348 8.34427Z" fill="#8B91A8"/>
<path d="M17.1785 9.28439L15.8824 8.00389C15.6802 7.804 15.439 7.64678 15.1735 7.54176C14.9079 7.43674 14.6236 7.38611 14.3376 7.39294C13.7484 7.40401 13.1868 7.64181 12.7723 8.05574L7.98047 12.79L12.3251 17.097L17.126 12.3628C17.9977 11.496 18.0216 10.1174 17.1785 9.28439Z" fill="white" fill-opacity="0.5"/>
<path d="M11.8755 8.99138L7.98047 12.7416L11.6485 17.2921C11.6778 17.3203 11.7124 17.3424 11.7504 17.3572C11.7884 17.3721 11.8289 17.3794 11.8698 17.3786C11.9106 17.3779 11.9509 17.3692 11.9883 17.353C12.0257 17.3368 12.0595 17.3134 12.0877 17.2842L16.1813 13.2432C17.0416 12.3944 17.0644 11.0406 16.235 10.2212L14.9343 8.93953C14.1049 8.11892 12.7346 8.14259 11.8755 8.99138Z" fill="white"/>
<path d="M16.5899 12.9726L10.543 6.99843C9.60064 6.06736 8.04558 6.08652 7.07809 7.04352L5.74094 8.37362C5.27641 8.82865 5.01063 9.44526 5.00049 10.0915C4.99401 10.4075 5.05221 10.7216 5.17161 11.0148C5.291 11.3081 5.46913 11.5745 5.6953 11.7981L6.27374 12.3684C6.3171 12.4169 6.35931 12.4665 6.40609 12.5127L11.5276 17.5727C11.5919 17.6363 11.6682 17.6868 11.7521 17.7212C11.8361 17.7556 11.9262 17.7733 12.0171 17.7733C12.108 17.7733 12.1981 17.7556 12.282 17.7212C12.366 17.6868 12.4423 17.6363 12.5065 17.5727L16.8774 13.2555L16.5899 12.9726ZM5.40893 9.99341C5.40893 10.0182 5.40893 10.0441 5.40893 10.0689V10.0588C5.40893 10.0362 5.41122 10.0148 5.41236 9.99341H5.40893Z" fill="#8B91A8"/>
</svg>
