<svg width="111" height="50" viewBox="0 0 111 50" fill="none" xmlns="http://www.w3.org/2000/svg">
<path d="M60.2348 15.8555C60.3838 15.8602 60.5321 15.8326 60.6694 15.7747C60.8068 15.7167 60.93 15.6298 61.0306 15.5197C61.2592 15.2362 61.3698 14.8754 61.3395 14.5124V6.01397C61.3711 5.65138 61.2617 5.29056 61.034 5.00664C60.9327 4.89654 60.8089 4.80956 60.671 4.75161C60.5331 4.69367 60.3843 4.66613 60.2348 4.67087C60.0867 4.66533 59.9392 4.69256 59.8028 4.7506C59.6664 4.80864 59.5445 4.89607 59.4457 5.00664C59.2273 5.29482 59.1232 5.65364 59.1536 6.01397V14.5191C59.1248 14.8798 59.23 15.2385 59.4491 15.5265C59.5481 15.6354 59.6697 15.7213 59.8055 15.7781C59.9412 15.835 60.0878 15.8614 60.2348 15.8555Z" fill="#6E5CA8"/>
<path d="M65.0311 15.5769H70.9743C71.2546 15.5976 71.5326 15.5125 71.7533 15.3385C71.8394 15.2602 71.9074 15.164 71.9527 15.0568C71.9979 14.9495 72.0192 14.8337 72.0152 14.7173C72.0206 14.5983 71.9999 14.4796 71.9547 14.3694C71.9094 14.2593 71.8407 14.1603 71.7533 14.0794C71.5332 13.9042 71.2548 13.819 70.9743 13.841H65.8806V10.7686H70.4169C70.6871 10.7912 70.9555 10.7081 71.1657 10.5369C71.247 10.46 71.311 10.3666 71.3532 10.2629C71.3955 10.1593 71.4151 10.0478 71.4108 9.9359C71.415 9.82523 71.395 9.71498 71.3521 9.61289C71.3091 9.5108 71.2444 9.41934 71.1623 9.34494C70.9509 9.1791 70.6848 9.0988 70.4169 9.11997H65.8806V6.46735H70.8064C71.0849 6.49004 71.3617 6.40735 71.5821 6.23567C71.667 6.15815 71.7338 6.06295 71.7779 5.95678C71.822 5.85061 71.8423 5.73605 71.8373 5.6212C71.842 5.50737 71.8215 5.39391 71.7774 5.28887C71.7333 5.18383 71.6666 5.08979 71.5821 5.01345C71.3617 4.84176 71.0849 4.75907 70.8064 4.78176H65.0311C64.7704 4.77219 64.5106 4.81797 64.2689 4.91607C64.0745 5.00277 63.9191 5.15823 63.8324 5.35258C63.7295 5.59543 63.6814 5.85795 63.6914 6.1215V14.2372C63.6579 14.6062 63.7699 14.9737 64.0036 15.2613C64.1457 15.379 64.3095 15.4675 64.4859 15.5216C64.6622 15.5758 64.8475 15.5946 65.0311 15.5769Z" fill="#6E5CA8"/>
<path d="M74.0217 15.7616C74.1527 15.7739 74.2847 15.7547 74.4068 15.7056C74.5289 15.6565 74.6375 15.579 74.7235 15.4795C74.9385 15.1368 75.111 14.7693 75.2373 14.3849L75.7543 13.0015H80.1429L80.66 14.3446C80.7272 14.5125 80.8111 14.7039 80.9051 14.9222C80.9751 15.0945 81.0653 15.2579 81.1737 15.409C81.2575 15.5142 81.3628 15.6 81.4827 15.6609C81.6216 15.7243 81.7732 15.7553 81.9259 15.7515C82.0665 15.7539 82.2061 15.7275 82.336 15.6738C82.466 15.62 82.5835 15.5402 82.6814 15.4392C82.7753 15.3536 82.8512 15.2501 82.9049 15.1348C82.9585 15.0195 82.9886 14.8947 82.9936 14.7677C82.9497 14.365 82.8361 13.973 82.6579 13.6093L79.8374 6.64195C79.7064 6.30618 79.5956 6.01741 79.5016 5.80587C79.4114 5.5994 79.2988 5.40347 79.1658 5.22162C79.0375 5.03708 78.8687 4.88432 78.6722 4.77504C78.4372 4.65316 78.1746 4.59417 77.91 4.6038C77.6487 4.59485 77.3896 4.65385 77.1579 4.77504C76.9604 4.88585 76.7915 5.04103 76.6643 5.22834C76.5203 5.44968 76.4009 5.68613 76.3084 5.93347L76.0263 6.65874L73.2629 13.6697C73.151 13.9495 73.0704 14.1734 73.0211 14.3413C72.9729 14.4887 72.948 14.6428 72.9473 14.7979C72.9506 14.9256 72.9803 15.0512 73.0347 15.1668C73.089 15.2824 73.1667 15.3854 73.2629 15.4695C73.363 15.5671 73.4818 15.6433 73.6123 15.6935C73.7428 15.7437 73.8821 15.7669 74.0217 15.7616ZM77.9268 6.9005L79.5687 11.3562H76.3419L77.9268 6.9005Z" fill="#6E5CA8"/>
<path d="M91.9921 15.3317C92.0842 15.2521 92.1573 15.1529 92.2062 15.0413C92.255 14.9298 92.2782 14.8087 92.2741 14.687C92.2773 14.5646 92.2534 14.443 92.204 14.331C92.1547 14.2189 92.0811 14.1192 91.9887 14.0389C91.7601 13.8535 91.4699 13.7612 91.1761 13.7804H86.7439V5.92327C86.7724 5.56101 86.6633 5.20131 86.4383 4.91595C86.3368 4.8062 86.213 4.71945 86.0751 4.66153C85.9373 4.60362 85.7886 4.57588 85.6392 4.58018C85.4916 4.57514 85.3448 4.6026 85.209 4.66063C85.0732 4.71865 84.9518 4.80582 84.8535 4.91595C84.6306 5.20212 84.5239 5.56185 84.5546 5.92327V14.2371C84.5212 14.6061 84.6332 14.9736 84.8669 15.2612C85.0089 15.3789 85.1728 15.4673 85.3492 15.5215C85.5255 15.5757 85.7108 15.5945 85.8944 15.5768H91.1761C91.469 15.5984 91.7596 15.5111 91.9921 15.3317Z" fill="#6E5CA8"/>
<path d="M99.4678 6.33963C99.5596 6.25771 99.6322 6.15656 99.6803 6.04338C99.7285 5.9302 99.7511 5.80779 99.7465 5.68487C99.7511 5.56227 99.7288 5.44016 99.6812 5.32706C99.6337 5.21397 99.562 5.11263 99.4712 5.03011C99.2301 4.8471 98.9303 4.75872 98.6284 4.78163H91.6745C91.3812 4.76106 91.0903 4.84689 90.8552 5.02339C90.759 5.10567 90.6831 5.20912 90.6336 5.32564C90.5841 5.44215 90.5623 5.56856 90.5698 5.69494C90.5649 5.81728 90.5866 5.93924 90.6336 6.05231C90.6806 6.16539 90.7516 6.26687 90.8418 6.3497C91.0794 6.53169 91.3762 6.61903 91.6745 6.59482H94.0619V14.4385C94.0313 14.801 94.1406 15.1614 94.3674 15.4458C94.4674 15.5558 94.59 15.6427 94.7268 15.7007C94.8636 15.7587 95.0113 15.7863 95.1599 15.7816C95.3063 15.7857 95.4519 15.7577 95.5864 15.6997C95.721 15.6417 95.8412 15.5551 95.9389 15.4458C96.1632 15.1603 96.2712 14.8004 96.241 14.4385V6.58474H98.6284C98.9287 6.60778 99.2271 6.52064 99.4678 6.33963Z" fill="#6E5CA8"/>
<path d="M64.7931 29.4073H60.3608V21.5468C60.3907 21.1844 60.2815 20.8242 60.0553 20.5395C59.9539 20.4296 59.8301 20.3427 59.6922 20.2848C59.5543 20.2268 59.4056 20.1992 59.2561 20.2037C59.1086 20.1987 58.9617 20.2261 58.8259 20.2842C58.6901 20.3422 58.5688 20.4294 58.4704 20.5395C58.2487 20.8263 58.1421 21.1855 58.1716 21.5468V29.8639C58.1357 30.0481 58.1455 30.2382 58.2003 30.4176C58.2551 30.597 58.3531 30.7602 58.4858 30.8929C58.6184 31.0255 58.7816 31.1236 58.961 31.1783C59.1404 31.2331 59.3306 31.243 59.5147 31.207H64.7931C65.0864 31.2277 65.377 31.1392 65.609 30.9586C65.7011 30.879 65.7743 30.7798 65.8231 30.6682C65.8719 30.5566 65.8951 30.4356 65.8911 30.3139C65.8936 30.1916 65.8693 30.0702 65.82 29.9583C65.7707 29.8464 65.6976 29.7465 65.6056 29.6658C65.377 29.4804 65.0868 29.388 64.7931 29.4073Z" fill="#6E5CA8"/>
<path d="M73.2163 22.2623C73.0853 21.9265 72.9745 21.6344 72.8805 21.4262C72.7903 21.2198 72.6777 21.0238 72.5447 20.842C72.4173 20.6566 72.2483 20.5037 72.0511 20.3954C71.8165 20.2722 71.5538 20.2121 71.2889 20.2208C71.0273 20.2129 70.7681 20.2731 70.5368 20.3954C70.3378 20.5041 70.1684 20.6597 70.0432 20.8487C69.8985 21.0685 69.7791 21.3039 69.6873 21.5505L69.4052 22.2757L66.6418 29.2901C66.5299 29.5677 66.4493 29.7915 66.4 29.9616C66.3518 30.1091 66.3269 30.2631 66.3262 30.4183C66.3295 30.546 66.3592 30.6716 66.4136 30.7872C66.4679 30.9027 66.5456 31.0058 66.6418 31.0898C66.835 31.2832 67.0971 31.3919 67.3704 31.392C67.5017 31.4045 67.6341 31.385 67.7563 31.3353C67.8785 31.2856 67.9868 31.2072 68.0722 31.1066C68.2879 30.7643 68.4604 30.3966 68.5859 30.012L69.103 28.6286H73.5252L74.0423 29.9717C74.1094 30.1362 74.1934 30.331 74.2874 30.5492C74.358 30.7213 74.4481 30.8846 74.556 31.0361C74.6399 31.1402 74.7452 31.225 74.8649 31.2846C75.0031 31.3508 75.155 31.3831 75.3081 31.3786C75.4492 31.3818 75.5893 31.3554 75.7194 31.301C75.8496 31.2466 75.9668 31.1655 76.0636 31.063C76.1599 30.9756 76.2372 30.8694 76.2909 30.7511C76.3446 30.6327 76.3735 30.5046 76.3759 30.3746C76.3314 29.9731 76.2178 29.5824 76.0401 29.2196L73.2163 22.2623ZM69.7041 26.9833L71.3024 22.5276L72.9309 26.9833H69.7041Z" fill="#6E5CA8"/>
<path d="M83.9775 20.2207C83.8219 20.2165 83.6675 20.2499 83.5275 20.3181C83.3987 20.387 83.2846 20.4805 83.1918 20.5934C83.0906 20.7152 82.9986 20.8442 82.9164 20.9796L82.6075 21.4899L80.5761 24.7671L78.5614 21.4899C78.3569 21.1362 78.1245 20.7994 77.8664 20.4826C77.7786 20.3954 77.6734 20.3276 77.5577 20.2837C77.442 20.2397 77.3184 20.2205 77.1948 20.2274C76.9283 20.2205 76.6699 20.3195 76.4763 20.5028C76.385 20.5842 76.312 20.684 76.2622 20.7957C76.2124 20.9075 76.187 21.0285 76.1875 21.1508C76.1966 21.3378 76.2446 21.5208 76.3285 21.6881C76.4767 21.983 76.6404 22.2699 76.8188 22.5476L79.458 26.6374V30.0623C79.4288 30.4235 79.5354 30.7827 79.7568 31.0696C79.8599 31.1742 79.9827 31.2572 80.1182 31.3139C80.2537 31.3706 80.399 31.3997 80.5459 31.3997C80.6927 31.3997 80.8381 31.3706 80.9735 31.3139C81.109 31.2572 81.2318 31.1742 81.3349 31.0696C81.5626 30.7855 81.6731 30.4252 81.6438 30.0623V26.6307L84.33 22.4838C84.5057 22.2283 84.666 21.9626 84.8102 21.6881C84.8981 21.5092 84.9451 21.3131 84.9479 21.1139C84.9477 20.9964 84.9231 20.8802 84.8757 20.7727C84.8283 20.6652 84.7591 20.5687 84.6725 20.4893C84.5806 20.4002 84.4717 20.3305 84.3523 20.2843C84.2329 20.2382 84.1054 20.2165 83.9775 20.2207Z" fill="#6E5CA8"/>
<path d="M93.2798 25.4891C94.361 24.9899 94.9016 24.1986 94.9016 23.1152C94.902 22.8108 94.8497 22.5086 94.7472 22.222C94.6431 21.9404 94.4909 21.6791 94.2972 21.4497C94.1067 21.2206 93.8798 21.0244 93.6257 20.8688C93.3161 20.6842 92.9743 20.56 92.6184 20.5028C92.1741 20.4332 91.7249 20.4006 91.2753 20.4055H87.7631C87.3993 20.3728 87.0373 20.485 86.7557 20.7177C86.5215 21.0063 86.4095 21.3751 86.4435 21.7452V29.8642C86.4129 30.2267 86.5222 30.5871 86.749 30.8715C86.8853 30.993 87.0449 31.0855 87.2181 31.1432C87.3913 31.2009 87.5745 31.2228 87.7564 31.2073H91.057C91.5563 31.2103 92.0554 31.1823 92.5512 31.1234C92.9407 31.0761 93.3222 30.9779 93.6861 30.8313C94.2023 30.609 94.6389 30.2355 94.9386 29.7601C95.2487 29.2729 95.4097 28.7057 95.4019 28.1283C95.4064 26.821 94.6991 25.9413 93.2798 25.4891ZM88.6361 22.0474H90.4123C91.0154 22.0161 91.6185 22.1074 92.1852 22.316C92.3817 22.4161 92.5428 22.5741 92.6466 22.7687C92.7505 22.9632 92.7922 23.1849 92.7661 23.4039C92.7693 23.6466 92.7066 23.8857 92.5848 24.0956C92.4437 24.3704 92.2037 24.5815 91.9133 24.6866C91.503 24.8034 91.077 24.8555 90.6507 24.841H88.6361V22.0474ZM90.9865 29.5486H88.6361V26.4091H90.9126C91.5078 26.3695 92.1022 26.4975 92.6285 26.7785C92.8211 26.9069 92.9759 27.0846 93.0768 27.293C93.1778 27.5014 93.2212 27.7329 93.2026 27.9637C93.1959 29.0203 92.4572 29.5486 90.9865 29.5486Z" fill="#6E5CA8"/>
<path d="M104.253 20.2209C104.099 20.2166 103.945 20.25 103.807 20.3182C103.677 20.3862 103.563 20.4799 103.471 20.5936C103.369 20.7145 103.276 20.8436 103.195 20.9797L102.883 21.4901L100.845 24.7672L98.8304 21.4901C98.6259 21.1364 98.3935 20.7995 98.1354 20.4828C98.0476 20.3955 97.9424 20.3277 97.8267 20.2838C97.711 20.2398 97.5874 20.2207 97.4638 20.2276C97.1973 20.2206 96.9389 20.3196 96.7453 20.5029C96.6528 20.5836 96.5789 20.6832 96.5285 20.795C96.4781 20.9069 96.4524 21.0283 96.4531 21.1509C96.462 21.3383 96.5113 21.5216 96.5975 21.6882C96.7431 21.9845 96.9068 22.2716 97.0878 22.5478L99.7169 26.6308V30.0557C99.6871 30.4176 99.795 30.7773 100.019 31.063C100.122 31.1679 100.244 31.2512 100.379 31.3081C100.515 31.365 100.66 31.3943 100.806 31.3943C100.953 31.3943 101.098 31.365 101.234 31.3081C101.369 31.2512 101.491 31.1679 101.594 31.063C101.824 30.7801 101.936 30.4192 101.906 30.0557V26.6308L104.602 22.4974C104.781 22.2379 104.944 21.9676 105.089 21.6882C105.18 21.5103 105.228 21.3137 105.23 21.114C105.229 20.9967 105.204 20.8807 105.157 20.7734C105.11 20.666 105.041 20.5694 104.955 20.4895C104.862 20.3998 104.752 20.3298 104.631 20.2837C104.511 20.2375 104.382 20.2162 104.253 20.2209Z" fill="#6E5CA8"/>
<path d="M58.7091 10.2614C58.7151 10.1127 58.6882 9.96454 58.6301 9.82752C58.572 9.69051 58.4844 9.56805 58.3733 9.46897C58.0849 9.25111 57.7263 9.14712 57.366 9.17685H54.203V6.01385C54.2329 5.65144 54.1236 5.29125 53.8975 5.00653C53.7958 4.89695 53.6719 4.81032 53.5341 4.75241C53.3963 4.69451 53.2477 4.66667 53.0983 4.67075C52.9496 4.66471 52.8014 4.69169 52.6644 4.74975C52.5274 4.80781 52.405 4.8955 52.3059 5.00653C52.0874 5.2947 51.9834 5.65352 52.0138 6.01385V9.17685H48.8575C48.4967 9.14775 48.138 9.25298 47.8501 9.47233C47.7396 9.57105 47.6521 9.69295 47.5941 9.82935C47.5361 9.96575 47.5088 10.1133 47.5144 10.2614C47.5099 10.4099 47.5377 10.5576 47.5956 10.6943C47.6536 10.8311 47.7404 10.9537 47.8501 11.0538C48.1331 11.284 48.494 11.3958 48.8575 11.3661H52.0339V14.519C52.0051 14.8797 52.1103 15.2384 52.3294 15.5263C52.4281 15.6369 52.55 15.7244 52.6864 15.7824C52.8228 15.8404 52.9703 15.8677 53.1185 15.8621C53.2669 15.8666 53.4146 15.8388 53.5514 15.7809C53.6882 15.7229 53.8108 15.6361 53.9109 15.5263C54.1407 15.2433 54.2526 14.8825 54.2232 14.519V11.3661H57.3862C57.7486 11.396 58.1087 11.2867 58.3935 11.0605C58.4998 10.9573 58.5829 10.8327 58.6373 10.6949C58.6917 10.5572 58.7162 10.4094 58.7091 10.2614Z" fill="#6E5CA8"/>
<path d="M110.684 5.10736C110.583 4.99743 110.459 4.91056 110.321 4.85263C110.184 4.7947 110.035 4.76706 109.885 4.77158C109.737 4.76554 109.588 4.79252 109.451 4.85058C109.314 4.90864 109.192 4.99633 109.093 5.10736C108.876 5.39629 108.773 5.75484 108.804 6.11468V14.6131C108.775 14.9734 108.879 15.3319 109.096 15.6205C109.195 15.731 109.317 15.8185 109.453 15.8765C109.59 15.9345 109.737 15.9618 109.885 15.9562C110.034 15.9609 110.183 15.9334 110.32 15.8754C110.457 15.8174 110.581 15.7305 110.681 15.6205C110.909 15.3364 111.019 14.976 110.99 14.6131V6.10461C111.019 5.74539 110.91 5.38867 110.684 5.10736Z" fill="#6E5CA8"/>
<path d="M107.035 9.27103H103.872V6.10467C103.903 5.74208 103.794 5.38126 103.566 5.09735C103.465 4.98707 103.341 4.89996 103.203 4.84201C103.065 4.78405 102.916 4.75661 102.767 4.76157C102.618 4.75553 102.47 4.78251 102.333 4.84057C102.196 4.89863 102.073 4.98632 101.974 5.09735C101.759 5.38698 101.657 5.74498 101.686 6.10467V9.27103H98.5293C98.1691 9.24161 97.8106 9.34557 97.522 9.56315C97.4114 9.66187 97.324 9.78377 97.266 9.92017C97.2079 10.0566 97.1807 10.2041 97.1863 10.3522C97.1818 10.5012 97.2095 10.6494 97.2674 10.7867C97.3253 10.924 97.4122 11.0473 97.522 11.148C97.8059 11.376 98.1664 11.4866 98.5293 11.4569H101.686V14.6132C101.656 14.974 101.761 15.3331 101.981 15.6205C102.078 15.732 102.2 15.82 102.336 15.8782C102.472 15.9363 102.619 15.963 102.767 15.9563C102.916 15.961 103.064 15.9334 103.201 15.8755C103.339 15.8175 103.462 15.7305 103.563 15.6205C103.792 15.3371 103.902 14.9762 103.872 14.6132V11.4569H107.035C107.397 11.4872 107.757 11.3779 108.042 11.1514C108.152 11.05 108.239 10.9261 108.297 10.7883C108.355 10.6504 108.382 10.5017 108.378 10.3522C108.384 10.2035 108.357 10.0554 108.299 9.91834C108.241 9.78133 108.153 9.65887 108.042 9.55979C107.753 9.34196 107.394 9.23905 107.035 9.27103Z" fill="#6E5CA8"/>
<path d="M39.9501 6.30951L35.8872 2.23992C32.9593 -0.691389 28.2517 -0.751828 25.401 2.0989L7.11133 20.3885L24.7664 32.1407L40.0945 16.789C40.7807 16.1053 41.3211 15.2894 41.683 14.3908C42.0449 13.4922 42.2207 12.5295 42.1998 11.561C42.1651 9.58377 41.3576 7.69869 39.9501 6.30951Z" fill="#6E5CA8"/>
<path d="M36.8377 9.10975L33.0233 5.29535C32.4283 4.69992 31.7184 4.23159 30.9369 3.91875C30.1554 3.60592 29.3185 3.4551 28.4769 3.47545C26.7428 3.50843 25.09 4.21679 23.8701 5.4498L9.76758 19.5523L22.5539 32.3823L36.6833 18.2798C39.2486 15.6976 39.3191 11.5911 36.8377 9.10975Z" fill="#EF6E4E"/>
<path d="M21.2309 8.23669L9.76758 19.4079L20.5627 32.9631C20.6489 33.047 20.7508 33.113 20.8626 33.1572C20.9744 33.2014 21.0938 33.2231 21.214 33.2209C21.3342 33.2187 21.4528 33.1927 21.5629 33.1445C21.673 33.0962 21.7724 33.0266 21.8555 32.9396L33.9031 20.9021C36.4348 18.3737 36.502 14.3411 34.0609 11.9L30.233 8.08224C27.792 5.6378 23.7593 5.70831 21.2309 8.23669Z" fill="white"/>
<path d="M35.1055 20.0964L17.3095 2.30035C14.536 -0.473146 9.95936 -0.416064 7.11199 2.43466L3.17671 6.3968C1.80958 7.75227 1.02738 9.58906 0.997529 11.514C0.978453 12.4554 1.14975 13.391 1.50114 14.2645C1.85252 15.1381 2.37676 15.9317 3.0424 16.5976L4.74477 18.2967C4.87237 18.441 4.9966 18.5888 5.13427 18.7264L20.2072 33.7994C20.3962 33.9888 20.6207 34.1391 20.8679 34.2417C21.1151 34.3442 21.3801 34.397 21.6477 34.397C21.9153 34.397 22.1803 34.3442 22.4274 34.2417C22.6746 34.1391 22.8991 33.9888 23.0881 33.7994L35.9517 20.9392L35.1055 20.0964ZM2.1996 11.2219C2.1996 11.2958 2.1996 11.373 2.1996 11.4469V11.4166C2.1996 11.3495 2.20632 11.2857 2.20968 11.2219H2.1996Z" fill="#31BA9E"/>
<path d="M24.0015 23.2728C24.1214 23.2767 24.2408 23.2547 24.3514 23.2084C24.4621 23.162 24.5615 23.0924 24.6428 23.0042C24.8261 22.7775 24.9151 22.4889 24.8913 22.1984V15.3351C24.9148 15.0462 24.8271 14.7592 24.6462 14.5326C24.5642 14.4446 24.4641 14.3754 24.3528 14.3296C24.2416 14.2838 24.1217 14.2626 24.0015 14.2674C23.8819 14.2622 23.7627 14.2836 23.6524 14.33C23.542 14.3765 23.4434 14.4468 23.3635 14.536C23.19 14.7646 23.1063 15.0489 23.1285 15.3351V22.1984C23.1074 22.486 23.1922 22.7714 23.3669 23.0009C23.4456 23.0908 23.5435 23.1619 23.6533 23.2089C23.7631 23.256 23.8821 23.2778 24.0015 23.2728Z" fill="#6E5CA8"/>
<path d="M22.7738 18.76C22.779 18.6404 22.7576 18.5212 22.7111 18.4109C22.6647 18.3006 22.5943 18.2019 22.5052 18.1221C22.2766 17.9485 21.9922 17.8648 21.706 17.887H19.1541V15.3351C19.1767 15.0457 19.0878 14.7587 18.9057 14.5326C18.8236 14.4446 18.7236 14.3754 18.6123 14.3296C18.501 14.2838 18.3812 14.2626 18.261 14.2674C18.1414 14.2622 18.0221 14.2836 17.9118 14.33C17.8015 14.3765 17.7029 14.4468 17.623 14.536C17.4508 14.7653 17.3674 15.0491 17.388 15.3351V17.887H14.8428C14.5552 17.8659 14.2698 17.9507 14.0403 18.1254C13.9486 18.2032 13.8756 18.3006 13.8267 18.4105C13.7779 18.5204 13.7545 18.6398 13.7582 18.76C13.7544 18.8799 13.7764 18.9993 13.8227 19.1099C13.8691 19.2206 13.9387 19.32 14.0269 19.4014C14.2531 19.5858 14.5417 19.676 14.8327 19.6532H17.3779V22.1984C17.3568 22.486 17.4416 22.7714 17.6163 23.0009C17.695 23.0908 17.7929 23.1619 17.9027 23.2089C18.0125 23.256 18.1315 23.2778 18.2509 23.2728C18.3708 23.2767 18.4902 23.2547 18.6008 23.2084C18.7115 23.162 18.8109 23.0924 18.8922 23.0042C19.0767 22.778 19.1669 22.4894 19.1441 22.1984V19.6532H21.696C21.9854 19.6757 22.2724 19.5868 22.4985 19.4047C22.5883 19.3236 22.6594 19.2239 22.707 19.1126C22.7545 19.0013 22.7773 18.881 22.7738 18.76Z" fill="#6E5CA8"/>
<path d="M66.4192 38.2485C66.3761 38.1309 66.3064 38.0249 66.2155 37.9387C66.1246 37.8525 66.0151 37.7885 65.8954 37.7516L65.5596 37.624C64.9753 37.389 64.6564 37.6979 64.418 38.037L60.0932 44.2287L61.0434 36.6738C61.0997 36.443 61.0674 36.1995 60.9531 35.9913C60.8387 35.7831 60.6505 35.6253 60.4256 35.5489L59.8346 35.3105C59.6203 35.2122 59.3772 35.1962 59.1518 35.2655C58.9264 35.3349 58.7344 35.4848 58.6124 35.6866L54.0828 41.8077L55.2077 34.3166C55.2748 33.8902 55.2547 33.4637 54.6872 33.2321L54.2641 33.0642C54.155 33.0082 54.0342 32.979 53.9116 32.979C53.7889 32.979 53.6681 33.0082 53.559 33.0642C53.4609 33.1298 53.3795 33.2174 53.3213 33.32C53.263 33.4225 53.2294 33.5373 53.2232 33.6551L52.0346 42.8621C51.9785 43.0933 52.0112 43.3371 52.1262 43.5454C52.2412 43.7537 52.4302 43.9112 52.6558 43.9869L53.4247 44.2992C53.6387 44.3998 53.8825 44.4171 54.1085 44.3475C54.3345 44.278 54.5265 44.1267 54.6469 43.9231L59.0859 37.9766L58.1087 45.33C58.0622 45.5612 58.1017 45.8013 58.2198 46.0054C58.3379 46.2094 58.5265 46.3633 58.7501 46.4381L59.5358 46.7571C59.6702 46.812 59.8137 46.8416 59.9589 46.8444C60.1201 46.8396 60.2776 46.7948 60.4171 46.7139C60.5566 46.633 60.6738 46.5186 60.758 46.381L66.2647 38.9067C66.3405 38.8169 66.394 38.7105 66.4208 38.5961C66.4477 38.4817 66.4471 38.3626 66.4192 38.2485Z" fill="#31BA9E"/>
<path d="M72.2115 39.2527C72.1809 39.0069 72.0668 38.7791 71.8883 38.6074C71.7098 38.4356 71.4778 38.3304 71.231 38.3092L70.5595 38.2085C70.3225 38.1535 70.0737 38.1861 69.8589 38.3002C69.6441 38.4144 69.4779 38.6025 69.391 38.8296L64.7607 47.1803C64.6871 47.2844 64.6401 47.4049 64.6237 47.5313C64.6073 47.6577 64.622 47.7862 64.6666 47.9056C64.731 48.0105 64.82 48.098 64.926 48.1606C65.0319 48.2232 65.1515 48.259 65.2744 48.2649L65.6337 48.3186C66.1843 48.4026 66.4328 48.1575 66.6813 47.7042L67.5812 46.0253L71.7112 46.6431L72.0772 48.5268C72.1779 49.0305 72.3458 49.336 72.8965 49.42L73.3431 49.4871C73.4079 49.4918 73.473 49.4918 73.5378 49.4871C73.6256 49.4929 73.7136 49.4803 73.7962 49.4503C73.8789 49.4202 73.9544 49.3733 74.018 49.3125C74.0983 49.212 74.1528 49.0934 74.1768 48.967C74.2008 48.8406 74.1936 48.7102 74.1556 48.5872L72.2115 39.2527ZM71.362 44.8064L68.4542 44.3699L70.536 40.5051L71.362 44.8064Z" fill="#31BA9E"/>
<path d="M83.0444 47.9722L78.7868 47.8983L78.9244 39.8162C78.9402 39.7017 78.9298 39.585 78.894 39.4751C78.8583 39.3651 78.7981 39.2647 78.7179 39.1813C78.6378 39.098 78.5398 39.0338 78.4314 38.9938C78.3229 38.9537 78.2068 38.9387 78.0917 38.9499H77.7559C77.6411 38.9408 77.5256 38.9545 77.4161 38.9902C77.3066 39.026 77.2053 39.083 77.118 39.1581C77.0371 39.2399 76.9741 39.3377 76.933 39.4453C76.892 39.5528 76.8738 39.6677 76.8796 39.7826L76.7217 48.8183C76.7087 48.9336 76.7216 49.0504 76.7594 49.1601C76.7973 49.2699 76.8592 49.3697 76.9407 49.4524C77.0221 49.5351 77.121 49.5986 77.2301 49.6382C77.3392 49.6778 77.4557 49.6925 77.5712 49.6813L83.0108 49.7753H83.0343C83.2348 49.787 83.4321 49.7208 83.585 49.5906C83.6558 49.5167 83.7107 49.4292 83.7465 49.3334C83.7823 49.2375 83.7982 49.1354 83.7932 49.0332V48.7612C83.801 48.6584 83.7884 48.555 83.7561 48.4571C83.7239 48.3591 83.6725 48.2685 83.6051 48.1904C83.5316 48.1176 83.4439 48.0606 83.3474 48.0231C83.251 47.9855 83.1478 47.9682 83.0444 47.9722Z" fill="#31BA9E"/>
<path d="M93.3364 47.9723C93.3368 47.8676 93.314 47.7642 93.2697 47.6694C93.2253 47.5746 93.1606 47.4908 93.08 47.424C92.9994 47.3572 92.905 47.3091 92.8036 47.2832C92.7022 47.2572 92.5963 47.2541 92.4936 47.2739L88.2662 47.6802L87.514 39.6216C87.5159 39.5065 87.4919 39.3924 87.4437 39.2878C87.3956 39.1832 87.3246 39.0908 87.236 39.0173C87.1474 38.9438 87.0434 38.8912 86.9317 38.8633C86.82 38.8354 86.7034 38.8329 86.5907 38.856L86.2549 38.8862C86.0225 38.8954 85.803 38.9955 85.6438 39.1649C85.5721 39.2553 85.5202 39.3596 85.4912 39.4712C85.4623 39.5828 85.4571 39.6992 85.4759 39.813L86.3187 48.8084C86.3175 48.9134 86.3381 49.0176 86.3791 49.1143C86.4201 49.211 86.4807 49.2982 86.557 49.3704C86.6333 49.4426 86.7237 49.4982 86.8225 49.5339C86.9213 49.5695 87.0264 49.5843 87.1313 49.5773H87.2555L92.6648 49.0669C92.7686 49.0648 92.8709 49.0417 92.9656 48.999C93.0602 48.9563 93.1452 48.8949 93.2155 48.8185C93.2785 48.7375 93.3242 48.6445 93.3496 48.5451C93.375 48.4457 93.3797 48.3422 93.3632 48.2409L93.3364 47.9723Z" fill="#31BA9E"/>
<path d="M103.552 45.6823C103.537 45.579 103.499 45.4803 103.442 45.3933C103.384 45.3064 103.308 45.2333 103.218 45.1793C103.129 45.1253 103.029 45.0919 102.925 45.0813C102.821 45.0707 102.717 45.0833 102.618 45.1182L97.82 46.2967L97.1485 43.5702L100.755 42.6838C100.856 42.6643 100.952 42.6245 101.038 42.5668C101.123 42.5091 101.196 42.4347 101.252 42.348C101.301 42.2604 101.332 42.1638 101.343 42.064C101.354 41.9643 101.344 41.8633 101.315 41.7671L101.252 41.5187C101.239 41.4174 101.203 41.3205 101.147 41.2352C101.091 41.15 101.016 41.0785 100.929 41.0264C100.841 40.9743 100.742 40.9429 100.641 40.9345C100.539 40.9261 100.437 40.941 100.342 40.9781L96.7321 41.8645L96.1076 39.3294L100.775 38.1844C100.877 38.1648 100.975 38.125 101.062 38.0673C101.149 38.0097 101.224 37.9354 101.282 37.8486C101.331 37.7579 101.361 37.6582 101.371 37.5556C101.381 37.4529 101.37 37.3493 101.339 37.251L101.279 36.9991C101.264 36.8963 101.227 36.7981 101.169 36.7117C101.112 36.6253 101.035 36.553 100.946 36.5001C100.857 36.4472 100.757 36.4151 100.653 36.4061C100.55 36.3972 100.446 36.4117 100.348 36.4485L94.5362 37.8789C94.4212 37.8933 94.311 37.9333 94.2136 37.996C94.1162 38.0586 94.034 38.1423 93.9732 38.2408C93.9123 38.3394 93.8743 38.4503 93.8619 38.5655C93.8495 38.6806 93.863 38.7971 93.9016 38.9063L96.0606 47.6801C96.081 47.7941 96.1247 47.9027 96.1888 47.9992C96.2529 48.0956 96.3361 48.1779 96.4333 48.2409C96.5503 48.3057 96.6824 48.3381 96.8161 48.3349C96.9124 48.335 97.0084 48.3226 97.1015 48.2979L103.045 46.8373C103.147 46.8176 103.244 46.7778 103.33 46.7201C103.417 46.6625 103.491 46.5882 103.548 46.5015C103.6 46.4118 103.632 46.3123 103.643 46.2094C103.654 46.1065 103.644 46.0025 103.612 45.9039L103.552 45.6823Z" fill="#31BA9E"/>
<path d="M110.701 42.7748L107.186 35.465L109.717 34.2461C109.817 34.2159 109.908 34.1631 109.984 34.0917C110.06 34.0202 110.118 33.9322 110.153 33.8345C110.189 33.7369 110.202 33.6322 110.19 33.5288C110.179 33.4254 110.143 33.3261 110.087 33.2388L109.973 33.0071C109.938 32.9082 109.882 32.8179 109.809 32.7426C109.736 32.6673 109.647 32.6086 109.55 32.5706C109.45 32.5418 109.345 32.5333 109.242 32.5454C109.139 32.5575 109.039 32.59 108.949 32.6411L102.045 35.9619C101.947 35.994 101.857 36.0482 101.784 36.1205C101.71 36.1927 101.654 36.281 101.62 36.3784C101.586 36.4759 101.574 36.5798 101.587 36.6823C101.6 36.7848 101.636 36.883 101.692 36.9692L101.803 37.2009C101.841 37.2957 101.898 37.3818 101.97 37.4539C102.042 37.5261 102.128 37.5828 102.223 37.6206C102.321 37.6492 102.424 37.658 102.525 37.6465C102.627 37.635 102.725 37.6033 102.814 37.5535L105.346 36.338L108.861 43.6511C108.905 43.7578 108.969 43.8545 109.051 43.9354C109.133 44.0162 109.231 44.0794 109.338 44.1212C109.41 44.1443 109.484 44.1557 109.56 44.1548C109.715 44.1518 109.868 44.1127 110.006 44.0406L110.305 43.8963C110.414 43.8579 110.512 43.7957 110.593 43.7142C110.675 43.6327 110.736 43.534 110.774 43.4254C110.812 43.3169 110.826 43.2011 110.813 43.0868C110.8 42.9724 110.762 42.8623 110.701 42.7647V42.7748Z" fill="#31BA9E"/>
</svg>
