<svg width="24" height="24" viewBox="0 0 24 24" fill="none" xmlns="http://www.w3.org/2000/svg">
<path fill-rule="evenodd" clip-rule="evenodd" d="M11.9985 4.49976C14.0598 4.49976 15.7429 6.17241 15.7429 8.23337C15.7429 10.2943 14.0601 11.9673 11.9985 11.9673C9.94337 11.9673 8.26135 10.2944 8.26135 8.23337C8.26135 6.17234 9.94347 4.49976 11.9985 4.49976Z" fill="#EF6E4E"/>
<path fill-rule="evenodd" clip-rule="evenodd" d="M13.1998 13.2441C13.4874 13.2484 13.6255 13.5153 13.5219 13.752L12.3266 16.2593C12.2982 16.319 12.2527 16.3703 12.1969 16.4059C12.1413 16.4414 12.0754 16.4611 12.0093 16.4617C11.9431 16.4617 11.877 16.4442 11.8205 16.4099C11.7641 16.3755 11.7175 16.3251 11.6877 16.2662L10.4291 13.7658C10.3141 13.501 10.4681 13.2484 10.7457 13.2511L13.1998 13.2441Z" fill="#EF6E4E"/>
<path fill-rule="evenodd" clip-rule="evenodd" d="M14.6897 14.2508L12.2914 17.7724C12.1636 17.9651 11.8343 17.9682 11.703 17.7779L9.29357 14.2563C9.12308 14.3276 8.95621 14.4058 8.79393 14.4896V16.1004C9.29156 16.2384 9.67666 16.6622 9.67666 17.1891C9.67666 17.8355 9.09508 18.3223 8.43865 18.3223C7.78208 18.3223 7.20624 17.8355 7.20624 17.1891C7.20624 16.6639 7.58831 16.2399 8.08336 16.1004V14.9118C6.54445 15.9649 5.51766 17.6209 5.40186 19.4998H18.5981C18.4822 17.6274 17.462 15.9807 15.9333 14.9283V15.756C16.158 15.8424 16.3491 16.0035 16.4885 16.2004C16.6548 16.4354 16.7579 16.7274 16.7939 17.0447C17.0017 17.163 17.1492 17.3789 17.1492 17.6335C17.1492 18.017 16.8184 18.3167 16.4441 18.3167C16.0689 18.3167 15.7278 18.017 15.7278 17.6335C15.7278 17.3852 15.8699 17.1705 16.0721 17.0503C16.0417 16.8746 15.9875 16.7194 15.911 16.6114C15.8013 16.4564 15.6851 16.4003 15.5779 16.4003C15.4653 16.4003 15.3494 16.4566 15.2393 16.6114C15.1626 16.7192 15.1047 16.8745 15.0728 17.0503C15.2693 17.1696 15.4059 17.3837 15.4059 17.6335C15.4059 18.026 15.0639 18.3167 14.6897 18.3167C14.3155 18.3167 13.9791 18.0261 13.9791 17.6335C13.9791 17.3676 14.1343 17.1426 14.3511 17.028C14.3901 16.7174 14.4976 16.4314 14.6619 16.2004C14.8023 16.0032 14.9966 15.8422 15.2226 15.756V14.5007C15.049 14.4105 14.8726 14.3265 14.6896 14.2507L14.6897 14.2508Z" fill="#EF6E4E"/>
<path fill-rule="evenodd" clip-rule="evenodd" d="M8.43841 16.7615C8.1247 16.7615 7.91661 16.9787 7.91661 17.1891C7.91661 17.3996 8.12471 17.6113 8.43841 17.6113C8.75211 17.6113 8.96582 17.3997 8.96582 17.1891C8.96582 16.9787 8.75212 16.7615 8.43841 16.7615Z" fill="#EF6E4E"/>
</svg>
