<svg width="110" height="29" viewBox="0 0 110 29" fill="none" xmlns="http://www.w3.org/2000/svg">
<path d="M9.01342 26.0292L6.4209 21.5388L10.2256 14.967L12.6433 19.1549L26.9155 19.1473L22.8657 26.0912L9.01342 26.0292Z" fill="#FFAD64"/>
<path d="M29.4637 14.6885L26.8712 19.1788L19.2776 19.1699L21.6955 14.982L14.5527 2.62573L22.5913 2.661L29.4637 14.6885Z" fill="#ADD4D3"/>
<path d="M9.41345 2.60181H14.5985L18.3875 9.18272L13.5518 9.18248L6.42235 21.5465L2.43359 14.5673L9.41345 2.60181Z" fill="#FB8351"/>
<path fill-rule="evenodd" clip-rule="evenodd" d="M15.2307 1.56198L15.2152 1.53516H8.80096L1.20215 14.5617L6.41833 23.6885L6.42473 23.6775L8.39667 27.093L23.4773 27.1604L28.7734 18.0796H28.7381L30.6945 14.691L23.2126 1.597L15.2307 1.56198ZM20.1925 10.2491H20.2325L16.462 3.70053L21.9716 3.72469L28.2346 14.6855L26.2743 18.081L21.137 18.0837L22.9281 14.9815L20.1925 10.2491ZM13.9245 3.66825L16.4955 8.1159L12.9358 8.11582L6.84149 18.6845L6.42579 19.4026L3.66532 14.5726L10.0262 3.66825H13.9245ZM11.4526 14.9581L14.168 10.2489L17.7287 10.2491L20.4646 14.9821L18.6731 18.0851L13.2595 18.088L11.4526 14.9581ZM7.65551 21.543L8.68856 19.7515L10.2248 17.0979L12.0283 20.2218L17.441 20.2188L17.4322 20.234L25.0423 20.243L22.2552 25.0219L9.63138 24.9653L7.65551 21.543Z" fill="#333237"/>
<path d="M69.5442 9.34103C70.2747 9.34103 70.8681 8.74751 70.8681 8.0019C70.8681 7.25624 70.2747 6.67798 69.5442 6.67798C68.7986 6.67798 68.2051 7.25624 68.2051 8.0019C68.2051 8.74751 68.7986 9.34103 69.5442 9.34103ZM68.3572 18.1366H70.7159V10.528H68.3572V18.1366Z" fill="#FB8351"/>
<path d="M72.0889 21.7888H74.402V17.3758C74.8433 17.9541 75.8476 18.3497 76.8976 18.3497C79.165 18.3497 80.5346 16.6149 80.4741 14.2105C80.4127 11.7605 78.9976 10.2844 76.8824 10.2844C75.8019 10.2844 74.7824 10.7561 74.3563 11.4562L74.2346 10.5279H72.0889V21.7888ZM74.4476 14.3323C74.4476 13.191 75.2085 12.4301 76.3041 12.4301C77.415 12.4301 78.115 13.2062 78.115 14.3323C78.115 15.4583 77.415 16.2345 76.3041 16.2345C75.2085 16.2345 74.4476 15.4736 74.4476 14.3323Z" fill="#FB8351"/>
<path d="M80.7236 15.7323C80.7842 17.2693 82.0022 18.3344 83.9192 18.3344C85.7605 18.3344 87.0391 17.3605 87.0391 15.7931C87.0391 14.667 86.3695 13.9214 85.1212 13.617L83.767 13.2822C83.2799 13.1605 82.9754 13.0388 82.9754 12.6431C82.9754 12.2475 83.2951 11.9888 83.767 11.9888C84.2994 11.9888 84.6494 12.3388 84.6342 12.8562H86.7497C86.6891 11.2735 85.4863 10.2844 83.8124 10.2844C82.1233 10.2844 80.8607 11.2888 80.8607 12.8105C80.8607 13.8301 81.4235 14.667 82.93 15.0627L84.2691 15.4127C84.6645 15.5192 84.8319 15.7018 84.8319 15.9605C84.8319 16.341 84.482 16.5845 83.8889 16.5845C83.2042 16.5845 82.8391 16.2649 82.8391 15.7323H80.7236Z" fill="#FB8351"/>
<path d="M90.6254 18.3346C91.5532 18.3346 92.4819 17.9085 92.9537 17.2846L93.106 18.1367H95.3124V10.5281H92.9689V14.4846C92.9689 15.6259 92.6341 16.2498 91.5532 16.2498C90.7163 16.2498 90.1687 15.8694 90.1687 14.4541V10.5281H87.8252V15.3063C87.8252 17.1172 88.8295 18.3346 90.6254 18.3346Z" fill="#FB8351"/>
<path d="M99.0285 18.1367V13.9823C99.0285 12.7041 99.7133 12.3389 100.383 12.3389C101.129 12.3389 101.616 12.7954 101.616 13.7389V18.1367H103.928V13.9823C103.928 12.6889 104.598 12.3237 105.267 12.3237C106.014 12.3237 106.516 12.7802 106.516 13.7389V18.1367H108.798V13.1606C108.798 11.4258 107.885 10.2693 105.922 10.2693C104.827 10.2693 103.928 10.8019 103.533 11.6236C103.076 10.8019 102.286 10.2693 101.022 10.2693C100.185 10.2693 99.4088 10.6497 98.9528 11.2584L98.8612 10.528H96.6699V18.1367H99.0285Z" fill="#FB8351"/>
<path d="M37.4029 6.87695H34.9072V18.1379H41.8159V15.9313H37.4029V6.87695Z" fill="#333237"/>
<path d="M42.0547 14.3183C42.0547 16.7225 43.6678 18.3204 46.1025 18.3204C48.5221 18.3204 50.1351 16.7225 50.1351 14.3183C50.1351 11.9139 48.5221 10.3008 46.1025 10.3008C43.6678 10.3008 42.0547 11.9139 42.0547 14.3183ZM44.4134 14.303C44.4134 13.1617 45.083 12.4008 46.1025 12.4008C47.1069 12.4008 47.7764 13.1617 47.7764 14.303C47.7764 15.4595 47.1069 16.2204 46.1025 16.2204C45.083 16.2204 44.4134 15.4595 44.4134 14.303Z" fill="#333237"/>
<path d="M50.5118 14.1966C50.5118 16.4944 52.0032 18.0466 54.1184 18.0466C55.138 18.0466 56.0206 17.6814 56.4619 17.0879V18.1379C56.4619 19.1879 55.8075 19.8879 54.651 19.8879C53.6162 19.8879 52.901 19.4009 52.8553 18.5335H50.4814C50.6944 20.6183 52.3075 22.0183 54.5141 22.0183C57.1162 22.0183 58.7597 20.3292 58.7597 17.6509V10.5292H56.6445L56.5228 11.3053C56.0966 10.6813 55.1989 10.2705 54.1641 10.2705C52.0336 10.2705 50.5118 11.8683 50.5118 14.1966ZM52.8857 14.1357C52.8857 13.04 53.6162 12.3097 54.5444 12.3097C55.6249 12.3097 56.4162 13.0248 56.4162 14.1357C56.4162 15.2466 55.6401 16.0074 54.5597 16.0074C53.6314 16.0074 52.8857 15.2466 52.8857 14.1357Z" fill="#333237"/>
<path d="M59.4434 14.3183C59.4434 16.7225 61.0564 18.3204 63.4912 18.3204C65.9107 18.3204 67.5238 16.7225 67.5238 14.3183C67.5238 11.9139 65.9107 10.3008 63.4912 10.3008C61.0564 10.3008 59.4434 11.9139 59.4434 14.3183ZM61.8021 14.303C61.8021 13.1617 62.4716 12.4008 63.4912 12.4008C64.4955 12.4008 65.1651 13.1617 65.1651 14.303C65.1651 15.4595 64.4955 16.2204 63.4912 16.2204C62.4716 16.2204 61.8021 15.4595 61.8021 14.303Z" fill="#333237"/>
</svg>
